<?xml version="1.0" standalone="no"?>
<!DOCTYPE svg PUBLIC "-//W3C//DTD SVG 20010904//EN"
 "http://www.w3.org/TR/2001/REC-SVG-20010904/DTD/svg10.dtd">
<svg version="1.0" xmlns="http://www.w3.org/2000/svg"
 width="963.000000pt" height="963.000000pt" viewBox="0 0 963.000000 963.000000"
 preserveAspectRatio="xMidYMid meet">

<g transform="translate(0.000000,963.000000) scale(0.100000,-0.100000)"
fill="#000000" stroke="none">
<path d="M4465 9619 c-632 -48 -1215 -206 -1780 -484 -1423 -700 -2409 -2054
-2640 -3625 -60 -406 -60 -984 0 -1390 56 -383 170 -797 314 -1143 450 -1082
1272 -1961 2316 -2477 188 -93 415 -190 445 -190 24 0 29 16 47 155 14 111 26
588 15 608 -2 5 -6 29 -8 55 -2 26 -5 70 -8 97 -4 48 -3 50 20 50 21 0 24 -4
24 -37 0 -21 4 -38 9 -38 5 0 11 -19 15 -42 6 -34 3 -45 -10 -55 -10 -7 -13
-13 -8 -13 6 0 14 4 19 9 6 5 21 12 35 16 24 7 24 7 8 -17 -16 -24 -15 -26 6
-49 35 -38 45 -95 29 -159 -14 -55 -10 -80 6 -39 7 17 10 19 10 7 1 -10 8 -18
16 -18 10 0 15 -11 16 -37 3 -63 4 -67 13 -82 5 -8 4 -16 -2 -20 -5 -3 -10
-19 -11 -36 -1 -58 -3 -62 -30 -59 l-26 4 28 -12 c23 -10 27 -18 27 -54 0 -24
4 -45 9 -48 8 -5 12 24 12 89 0 18 2 18 19 -5 19 -25 19 -25 17 -3 -1 13 -5
23 -10 23 -5 0 -7 12 -6 28 2 15 0 32 -4 39 -4 6 -2 15 4 18 5 4 11 5 12 4 1
-2 8 -14 15 -26 6 -13 12 -29 12 -36 0 -23 43 -12 52 12 4 13 6 27 2 32 -11
18 30 8 88 -21 32 -16 67 -30 78 -30 11 0 20 -7 20 -16 0 -8 4 -13 9 -9 5 3
13 0 17 -6 4 -8 8 -8 13 0 4 6 11 3 19 -9 11 -17 10 -20 -8 -20 -25 0 -26 -9
-3 -26 10 -7 15 -16 10 -20 -4 -4 -20 2 -35 13 -20 15 -33 18 -51 12 -12 -5
-34 -6 -47 -3 -15 4 -24 2 -24 -5 0 -6 8 -11 18 -11 14 0 15 -2 2 -10 -13 -8
-13 -10 1 -10 9 0 20 -7 23 -16 5 -13 9 -14 21 -4 8 7 15 19 15 27 0 15 15 13
78 -13 17 -7 32 -11 32 -8 0 3 9 0 21 -6 12 -7 18 -18 15 -26 -3 -8 -1 -14 4
-14 6 0 10 7 10 15 0 8 4 15 10 15 5 0 7 7 3 16 -5 15 0 16 43 9 27 -4 80 -7
117 -7 56 0 70 -3 80 -18 7 -13 15 -16 22 -10 7 6 37 2 80 -10 54 -15 71 -17
77 -7 5 8 8 8 8 1 0 -16 -20 -31 -53 -39 -17 -5 -27 -14 -27 -26 0 -13 -7 -19
-23 -19 -19 0 -26 8 -36 40 -6 22 -16 40 -22 40 -6 0 -7 -5 -3 -12 12 -20 10
-68 -3 -68 -7 0 -13 4 -13 9 0 4 -11 6 -25 3 -15 -2 -25 0 -25 7 0 7 8 11 18
10 39 -4 47 1 26 15 -22 16 -106 22 -142 10 -20 -6 -17 -9 30 -26 29 -10 62
-21 73 -24 11 -3 29 -9 40 -14 11 -4 28 -11 37 -14 10 -3 15 -11 12 -19 -3 -8
10 -25 31 -41 20 -16 34 -34 31 -41 -6 -16 15 -25 52 -24 21 1 23 2 7 6 -25 6
-43 21 -55 44 -8 14 -6 16 11 12 32 -9 96 -42 82 -43 -7 0 -13 -3 -13 -7 0
-10 143 -10 151 -1 7 11 129 26 129 17 0 -13 -43 -39 -53 -32 -6 4 -8 0 -4
-10 4 -11 1 -17 -8 -17 -8 0 -15 -3 -15 -8 0 -4 -29 -9 -64 -10 -35 -2 -77 -7
-93 -11 -22 -6 -9 -10 60 -16 61 -5 90 -12 96 -22 7 -14 11 -14 32 0 13 8 40
18 59 21 l35 6 -30 -14 c-16 -8 -52 -36 -80 -61 -48 -46 -36 -43 15 3 14 12
28 22 33 22 4 0 41 16 81 35 41 19 80 35 88 35 8 0 18 4 23 8 6 5 30 16 55 26
43 16 44 16 25 -1 -11 -10 -21 -29 -23 -43 -2 -23 -2 -23 9 -6 9 14 13 16 20
5 6 -10 11 -6 18 15 9 21 15 26 31 21 11 -4 20 -2 20 4 0 6 -6 11 -14 11 -8 0
-16 7 -20 15 -4 11 8 19 46 30 61 18 58 18 58 5 0 -5 -13 -10 -28 -10 -16 0
-37 -6 -48 -14 -18 -14 -16 -14 16 -10 19 3 41 7 48 9 6 2 12 1 12 -4 0 -4
-15 -13 -32 -19 -19 -5 -25 -10 -15 -11 17 -1 17 -3 3 -23 -28 -40 -16 -44 18
-6 37 42 83 59 98 37 8 -11 9 -10 4 4 -4 12 0 17 12 17 9 0 28 3 41 7 21 5 23
3 19 -15 -9 -34 9 -35 24 -2 13 31 19 34 52 30 40 -4 85 10 79 25 -3 8 -1 15
3 16 5 0 19 2 32 3 31 4 38 -10 12 -24 -26 -14 -17 -30 13 -22 21 5 20 3 -6
-24 -19 -19 -25 -30 -16 -33 7 -2 15 1 17 7 12 37 43 60 82 60 44 1 63 9 55
23 -4 5 3 9 15 9 17 0 19 -3 10 -20 -14 -25 -73 -70 -93 -70 -9 0 -19 -5 -23
-12 -4 -6 -3 -8 4 -4 5 3 12 1 14 -5 5 -16 62 14 82 42 8 12 27 30 41 39 15
10 25 21 23 26 -2 5 12 16 29 24 18 8 33 23 33 33 0 9 8 17 18 17 9 0 24 5 32
10 11 8 8 9 -12 4 -23 -5 -26 -3 -21 15 4 16 13 21 40 21 29 0 36 5 44 30 12
33 24 38 33 15 3 -9 0 -15 -8 -15 -8 0 -13 -7 -12 -16 3 -17 -63 -94 -81 -94
-7 0 -27 -14 -45 -31 -31 -30 -29 -31 14 -14 11 4 18 1 21 -12 4 -16 5 -16 6
-1 1 11 6 15 16 12 19 -8 47 14 38 29 -3 5 -2 7 3 4 6 -3 16 -1 24 4 12 7 13
11 2 18 -10 6 -7 10 12 13 14 3 26 1 26 -4 0 -5 9 -4 21 3 23 12 35 5 42 -26
4 -18 5 -18 14 5 8 20 6 31 -13 60 -27 40 -29 53 -11 72 8 7 19 23 26 36 9 18
9 22 -2 22 -18 0 -39 -24 -30 -33 3 -4 1 -7 -5 -7 -15 0 -15 3 0 35 10 22 31
31 61 26 4 0 7 10 7 24 0 28 -3 29 -30 15 -14 -7 -19 -5 -23 9 -3 13 1 21 14
24 11 3 16 1 13 -5 -4 -5 7 -8 27 -6 23 2 33 8 31 17 -3 14 35 61 50 61 4 0 8
-7 8 -15 0 -8 -5 -15 -12 -15 -6 0 -8 -3 -5 -6 12 -12 38 19 35 40 -2 14 2 20
11 18 8 -2 11 3 8 12 -4 9 6 20 27 30 49 23 62 42 38 55 -11 6 -22 8 -26 6 -3
-3 -2 0 2 5 6 7 18 7 38 0 23 -8 30 -16 28 -33 -1 -12 -3 -27 -3 -34 -1 -6 -7
-18 -14 -25 -8 -8 -10 -22 -6 -38 4 -14 7 -19 8 -11 1 8 7 11 17 7 9 -3 12 -2
9 5 -4 6 0 18 10 29 9 10 17 30 19 45 2 17 12 33 27 41 30 16 42 18 33 3 -4
-6 -9 -38 -11 -70 -2 -33 -8 -71 -14 -86 -5 -14 -6 -29 -1 -32 5 -3 11 -14 15
-24 9 -24 30 -22 22 3 -11 35 5 78 47 120 41 43 68 48 100 17 7 -6 21 -18 31
-26 15 -12 17 -12 12 0 -7 16 -78 69 -94 69 -6 0 -11 2 -11 5 0 15 69 126 85
137 5 4 11 12 11 18 3 23 5 24 17 10 18 -22 38 -23 35 -3 -2 12 3 18 16 18 15
0 26 15 42 57 12 32 25 75 29 97 7 40 78 128 121 150 25 12 39 51 18 51 -8 0
-11 -6 -7 -17 5 -12 2 -15 -10 -10 -9 3 -19 1 -23 -5 -4 -7 -9 -6 -14 2 -4 7
2 34 13 61 21 50 37 63 37 31 0 -23 37 -55 46 -40 4 5 1 14 -7 18 -13 9 -22
91 -12 116 3 8 17 11 39 8 20 -2 33 -1 30 4 -6 11 19 64 43 89 11 12 23 37 25
55 5 30 4 31 -6 10 -12 -24 -28 -30 -28 -9 0 8 -3 7 -10 -3 -8 -12 -10 -12
-15 2 -10 25 3 42 21 27 11 -9 14 -7 14 10 0 11 -4 21 -10 21 -5 0 -10 8 -10
18 0 14 2 15 10 2 8 -13 10 -12 10 3 0 20 17 41 39 48 13 5 20 22 23 56 1 7 8
15 15 17 8 3 11 11 7 17 -5 8 4 10 29 7 20 -2 33 0 31 4 -3 4 -16 8 -30 8 -13
0 -24 4 -24 10 0 5 7 6 17 3 10 -4 14 -2 10 4 -4 6 5 21 19 32 15 12 21 21 13
21 -11 0 -11 2 1 10 8 5 11 12 8 15 -4 4 -22 -5 -41 -19 -40 -30 -53 -23 -49
29 1 16 -1 24 -4 18 -7 -17 -25 -17 -23 -1 1 7 -1 26 -6 42 -5 18 -4 36 4 47
6 10 11 25 11 33 0 22 17 28 40 16 20 -11 21 -9 4 38 -9 21 -5 62 7 84 7 12 6
18 -1 18 -6 0 -8 5 -5 10 4 6 10 8 15 5 5 -3 3 8 -3 24 -9 25 -8 33 6 49 9 10
17 24 17 31 0 7 4 10 9 7 4 -3 6 -18 4 -33 l-4 -28 15 27 c12 20 14 33 6 53
-11 29 -3 105 11 105 5 0 9 9 9 20 0 11 -4 20 -8 20 -4 0 -9 12 -10 28 -1 22
0 24 9 10 5 -9 15 -15 22 -12 13 5 13 -239 -1 -426 -15 -209 27 -740 74 -925
19 -77 99 -295 131 -360 45 -89 96 -165 111 -165 21 0 306 191 457 307 918
705 1567 1744 1784 2857 71 361 95 607 95 961 0 277 -10 424 -45 670 -148
1029 -597 1946 -1317 2687 -828 852 -1931 1363 -3124 1448 -168 11 -511 11
-673 -1z m285 -420 c154 -14 349 -62 615 -153 239 -81 320 -113 435 -171 97
-48 254 -152 310 -204 24 -23 50 -41 56 -41 7 0 24 -14 38 -30 14 -17 29 -29
34 -28 10 3 82 -58 82 -69 0 -5 14 -14 31 -22 17 -7 36 -26 43 -41 6 -15 17
-25 24 -23 6 3 12 0 12 -6 0 -6 -5 -11 -11 -11 -5 0 -7 -5 -4 -10 4 -7 13 -7
25 0 17 9 33 -3 112 -81 51 -50 117 -113 146 -139 51 -47 68 -78 36 -66 -10 4
-14 1 -12 -6 3 -7 18 -14 34 -16 45 -5 98 -62 58 -62 -8 0 -12 -5 -9 -10 4 -6
14 -8 24 -5 11 3 27 -5 43 -22 35 -38 78 -109 71 -117 -4 -3 -1 -6 4 -6 15 0
95 -115 113 -160 8 -19 20 -39 27 -43 17 -10 17 -31 1 -21 -7 4 -1 -4 15 -19
15 -14 28 -33 28 -42 2 -25 4 -29 23 -58 10 -15 16 -30 12 -34 -3 -3 -1 -12 6
-20 6 -7 8 -17 4 -20 -4 -4 -11 -1 -16 6 -7 12 -12 12 -34 -3 -29 -18 -34 -29
-11 -20 8 4 15 1 15 -5 0 -7 9 -9 24 -5 20 5 27 0 39 -28 8 -18 20 -52 25 -76
l10 -43 -26 5 c-15 3 -33 2 -41 -3 -11 -7 -3 -13 30 -22 24 -7 47 -18 51 -23
8 -13 0 -28 -12 -21 -5 3 -11 1 -15 -5 -8 -13 -45 -13 -45 0 0 6 -11 10 -24
10 -14 0 -28 -4 -31 -10 -8 -13 -55 -13 -55 0 0 6 12 16 28 22 22 9 24 12 9
15 -25 6 -48 -4 -45 -19 2 -6 -6 -13 -17 -15 -16 -3 -17 -2 -5 6 22 15 1 31
-33 24 -19 -4 -26 -10 -23 -19 6 -17 -3 -18 -38 -4 -17 6 -26 6 -26 -1 0 -5
-24 -9 -55 -8 -36 1 -52 6 -48 13 4 7 1 7 -7 -1 -19 -17 -1 -35 29 -29 25 5
25 5 3 -6 -23 -11 -26 -45 -4 -40 7 1 12 -6 12 -17 0 -13 9 -20 30 -23 16 -2
32 -1 34 4 2 5 3 3 2 -3 -1 -7 -9 -13 -17 -15 -7 -1 -26 -5 -42 -9 -22 -6 -26
-4 -21 9 4 10 1 16 -7 16 -10 0 -11 3 -3 8 7 4 -1 13 -22 24 -20 10 -36 13
-39 8 -4 -6 1 -10 11 -10 13 0 14 -3 4 -15 -7 -8 -21 -15 -32 -15 -10 0 -17
-4 -14 -9 3 -5 15 -7 25 -4 13 3 29 -4 45 -20 21 -21 31 -24 69 -20 27 3 47 1
51 -6 6 -10 -19 -16 -46 -12 -4 0 -5 -6 -1 -15 4 -11 14 -14 34 -10 16 3 29 1
29 -4 0 -6 -8 -10 -17 -10 -13 0 -14 -3 -5 -12 7 -7 30 -11 52 -10 25 2 40 -2
40 -9 0 -7 -11 -10 -30 -7 -16 2 -31 0 -33 -6 -2 -7 -10 -6 -21 3 -12 11 -20
11 -28 3 -8 -8 -7 -13 5 -18 9 -3 17 -11 17 -17 0 -5 -9 -2 -19 7 -11 10 -28
16 -38 13 -16 -4 -15 -6 5 -12 12 -4 22 -12 22 -17 0 -5 -4 -7 -9 -4 -23 15
-41 -6 -37 -45 2 -22 0 -42 -6 -45 -5 -3 -1 -15 9 -26 18 -21 18 -21 -9 -16
-34 6 -36 -4 -4 -21 14 -8 30 -10 38 -5 7 5 37 9 66 9 29 1 47 -2 40 -7 -7 -4
-28 -8 -46 -8 -23 0 -31 -4 -26 -12 5 -7 0 -9 -14 -6 -19 5 -20 4 -11 -14 7
-14 7 -23 -1 -34 -10 -11 -9 -15 1 -18 41 -13 43 -14 22 -15 -36 -2 -53 -12
-53 -33 0 -13 5 -18 14 -15 17 7 12 -53 -6 -64 -9 -6 -8 -10 5 -15 9 -3 17
-12 17 -20 0 -8 5 -14 10 -14 6 0 10 -8 10 -18 0 -10 5 -23 12 -30 9 -9 9 -12
0 -12 -7 0 -12 5 -12 12 0 6 -3 8 -7 4 -10 -10 -11 -50 -1 -57 5 -3 5 -17 -1
-32 -10 -26 -9 -26 22 -22 18 3 25 2 17 -1 -43 -20 -18 -64 36 -64 38 0 50 12
29 30 -8 7 -15 21 -15 31 0 12 -7 19 -20 19 -11 0 -20 4 -20 9 0 5 -9 7 -20 4
-16 -4 -19 -2 -14 11 8 20 33 21 61 1 19 -13 21 -13 26 5 3 12 14 20 25 20 11
0 35 7 53 15 31 13 32 14 9 15 -24 1 -25 1 -5 16 19 14 18 15 -16 13 -23 -2
-43 3 -53 14 -9 9 -23 14 -31 11 -8 -4 -15 -1 -15 5 0 14 44 32 48 20 5 -12
32 -11 32 1 0 6 8 10 18 10 14 0 15 2 2 9 -8 6 -18 7 -22 5 -4 -3 -8 -1 -8 4
0 9 10 16 32 21 4 1 22 6 39 11 24 7 30 6 26 -4 -4 -9 0 -12 13 -9 11 3 16 11
13 19 -3 9 2 14 17 14 33 0 9 25 -33 35 -28 7 -29 9 -9 12 27 5 30 23 3 23
-10 0 -24 7 -32 16 -11 13 -9 14 14 9 17 -5 27 -3 27 4 0 6 -9 11 -20 11 -11
0 -20 4 -20 9 0 5 9 13 20 16 11 3 20 10 20 14 0 17 -13 18 -38 5 -32 -17 -42
-17 -42 -3 0 5 5 7 10 4 6 -3 10 1 10 9 0 8 -4 18 -10 21 -18 11 -11 25 13 25
20 0 24 5 25 32 0 18 -5 36 -11 40 -7 5 -8 8 -1 8 13 0 54 -38 54 -50 0 -6 9
-10 20 -10 13 0 18 5 14 15 -4 9 0 15 10 15 23 0 20 17 -5 30 -11 7 -18 18
-15 25 2 7 -2 16 -10 19 -10 4 -14 0 -12 -12 2 -11 -3 -16 -12 -14 -10 1 -9
-2 4 -13 17 -13 18 -15 3 -15 -16 0 -21 10 -18 36 2 16 -26 37 -39 29 -6 -3
-8 -11 -5 -16 4 -5 -3 -9 -15 -9 -12 0 -18 -4 -15 -10 3 -5 1 -10 -4 -10 -20
0 -11 27 14 40 13 7 24 16 23 19 -2 22 4 32 17 27 8 -3 15 -1 15 5 0 5 -10 13
-22 18 -19 7 -19 8 -4 14 11 4 16 13 12 22 -3 8 -1 15 4 15 6 0 10 -4 10 -10
0 -5 5 -10 12 -10 6 0 8 3 5 7 -4 3 -2 12 4 20 9 10 5 13 -19 13 -34 0 -46 12
-51 50 0 6 -9 10 -18 9 -11 0 -13 -3 -5 -6 6 -2 12 -9 12 -14 0 -6 -4 -7 -10
-4 -5 3 -10 1 -10 -4 0 -14 -57 -8 -72 7 -9 9 -7 12 8 12 10 0 25 9 32 21 9
14 20 19 33 16 13 -3 19 -1 16 6 -2 7 -13 13 -25 15 -12 2 -22 10 -22 17 0 11
13 8 50 -11 28 -14 48 -30 44 -35 -3 -5 2 -21 10 -34 14 -22 19 -23 36 -13 19
12 19 13 -1 20 -16 6 -19 11 -10 22 13 15 5 27 -15 19 -9 -3 -14 1 -14 12 0
14 7 16 40 12 23 -2 43 -7 47 -10 3 -3 12 0 20 8 22 22 36 18 31 -9 -3 -16 -1
-23 7 -20 17 7 29 -74 14 -92 -6 -8 -8 -14 -3 -15 5 -1 -2 -5 -16 -9 -24 -8
-24 -8 -2 -9 12 -1 22 -6 22 -12 0 -5 5 -7 10 -4 6 3 10 1 10 -4 0 -6 -8 -12
-17 -12 -17 -1 -17 -2 0 -6 9 -2 17 -9 17 -15 0 -6 -9 -8 -20 -5 -10 3 -27 -1
-37 -8 -17 -13 -17 -14 0 -21 14 -5 15 -9 6 -15 -8 -5 0 -13 27 -25 l39 -18
-29 -4 c-16 -2 -33 1 -39 7 -15 15 -30 14 -24 -1 4 -14 8 -15 62 -17 32 -1 35
-4 35 -31 0 -33 -11 -38 -30 -15 -7 8 -19 15 -27 15 -11 0 -12 -4 -2 -22 8
-15 14 -18 17 -10 3 10 7 10 18 1 15 -12 20 -34 5 -25 -5 3 -30 8 -56 11 -36
5 -46 3 -42 -7 2 -8 18 -12 41 -10 25 2 36 -1 31 -7 -3 -6 -13 -11 -21 -11 -8
0 -13 -4 -10 -8 5 -9 -32 -7 -57 3 -10 4 -21 5 -24 1 -4 -3 1 -6 10 -6 10 0
17 -7 17 -15 0 -18 21 -19 73 -4 21 5 35 14 32 20 -4 5 -1 9 4 9 6 0 14 1 18
3 3 1 7 -17 8 -40 1 -24 -2 -43 -6 -43 -5 0 -9 -5 -9 -11 0 -5 5 -7 10 -4 6 3
10 1 10 -4 0 -6 -5 -11 -12 -11 -9 0 -9 -3 0 -12 18 -18 14 -27 -8 -21 -14 4
-20 1 -18 -8 2 -8 12 -16 23 -19 30 -9 29 -34 -2 -47 l-28 -12 28 6 c16 3 27
1 27 -6 0 -6 -6 -11 -12 -11 -10 0 -10 -2 -1 -8 16 -10 20 -135 4 -140 -9 -3
-9 -7 0 -18 17 -21 15 -184 -2 -195 -12 -7 -12 -9 0 -9 8 0 11 -7 8 -19 -2
-10 0 -26 6 -36 8 -15 7 -17 -7 -12 -10 4 -24 -1 -36 -13 -19 -19 -18 -19 11
-32 40 -18 41 -58 2 -57 -28 0 -28 0 -4 10 20 8 21 12 10 25 -9 11 -22 14 -45
9 -18 -3 -35 -1 -39 5 -3 5 1 10 9 10 22 0 9 28 -17 37 -12 4 -26 6 -31 4 -5
-1 -5 4 1 11 9 10 5 13 -19 14 -20 1 -25 -2 -16 -7 11 -7 10 -11 -2 -19 -11
-7 -17 -4 -22 10 -5 12 -16 20 -30 19 -22 0 -22 -1 -3 -9 11 -5 14 -9 7 -9 -7
-1 -10 -5 -7 -11 3 -5 1 -10 -4 -10 -6 0 -11 5 -11 11 0 5 -5 7 -11 4 -6 -4
-16 0 -22 8 -10 12 -57 31 -57 22 0 -3 23 -18 90 -60 30 -19 129 -99 126 -102
-2 -2 -51 28 -109 67 -59 38 -110 70 -113 70 -4 0 -30 15 -58 34 -28 18 -75
46 -103 62 -29 15 -66 40 -83 56 -36 33 -50 35 -50 9 0 -10 -7 -24 -15 -31
-13 -11 -20 -9 -43 12 -33 30 -98 68 -118 68 -8 0 -14 6 -14 14 0 9 -7 12 -20
9 -17 -4 -20 0 -20 25 0 56 -15 78 -62 90 -44 11 -195 30 -305 37 -34 2 -91
11 -128 20 -36 8 -77 15 -90 15 -13 0 -35 10 -48 23 -14 12 -48 30 -75 40 -28
10 -58 24 -66 33 -9 8 -51 20 -100 26 -47 6 -82 16 -79 21 3 5 -4 4 -16 -3
-13 -6 -35 -8 -53 -5 -20 5 -28 4 -24 -3 11 -18 -147 -2 -162 16 -10 14 -16
14 -33 4 -11 -7 -24 -10 -30 -6 -6 3 -31 3 -57 -1 -37 -6 -43 -9 -27 -15 13
-5 -5 -8 -50 -9 -120 -2 -144 -5 -138 -14 3 -5 -9 -1 -27 8 -24 12 -31 13 -27
3 2 -7 10 -12 16 -10 21 4 11 -7 -18 -23 -16 -8 -31 -11 -33 -6 -2 5 -16 7
-33 4 -25 -5 -27 -7 -10 -13 11 -4 -11 -5 -50 -3 -56 4 -80 1 -117 -16 -30
-12 -50 -16 -54 -10 -3 6 -20 -1 -40 -16 -19 -14 -34 -21 -34 -16 0 6 5 11 11
11 5 0 7 5 4 10 -4 6 -11 7 -17 4 -7 -5 -9 -1 -5 9 3 10 2 17 -3 17 -6 0 -11
-6 -11 -12 -1 -7 -2 -17 -4 -23 -1 -5 -3 -16 -3 -22 -1 -7 -8 -13 -16 -13 -16
0 -29 -27 -20 -41 4 -7 -13 -13 -36 -11 -11 1 -3 -47 10 -63 11 -13 9 -19 -10
-40 -17 -18 -19 -25 -9 -25 10 -1 8 -5 -5 -15 -25 -19 -36 -19 -36 -2 0 19
-37 51 -44 39 -3 -6 1 -12 9 -16 21 -8 19 -27 -2 -20 -12 4 -9 -1 7 -15 27
-22 21 -27 -13 -10 l-22 10 21 -18 c19 -18 17 -18 -95 -20 -63 -1 -162 -9
-219 -18 -82 -13 -107 -14 -116 -4 -8 9 -8 10 2 5 6 -4 12 -2 12 3 0 6 -8 11
-17 11 -25 1 -64 81 -51 104 5 9 13 14 19 11 5 -3 6 1 2 11 -6 15 -7 16 -18 0
-11 -14 -13 -14 -29 2 -9 10 -16 24 -16 31 0 7 -6 11 -13 8 -7 -2 -37 17 -67
44 -53 47 -81 59 -45 19 10 -11 15 -20 11 -20 -11 0 -59 33 -84 57 -23 23 -42
30 -42 15 0 -4 5 -13 12 -20 9 -9 4 -12 -22 -12 -26 0 -31 -3 -20 -10 10 -7
11 -10 2 -10 -14 0 -50 19 -70 38 -18 16 -32 15 -32 -3 0 -8 8 -15 17 -15 9 0
14 -2 11 -6 -3 -3 -43 4 -89 16 -48 12 -96 18 -112 14 -16 -3 -38 -7 -50 -8
-37 -4 -132 -28 -142 -36 -5 -4 -30 -11 -55 -15 -37 -6 -41 -9 -25 -16 12 -5
-1 -7 -35 -4 -30 3 -49 2 -42 -1 21 -10 -87 -52 -232 -90 -71 -19 -201 -59
-290 -89 -135 -45 -263 -79 -218 -59 6 3 12 12 12 20 0 9 -4 13 -9 10 -5 -4
-7 3 -4 14 3 11 9 20 13 20 4 0 10 6 13 14 4 10 0 12 -14 9 -22 -6 -25 7 -6
26 10 11 8 12 -9 7 -19 -6 -21 -3 -17 30 2 20 0 41 -5 48 -28 34 -55 313 -47
476 8 170 38 352 65 402 6 10 10 24 10 32 0 52 91 268 170 401 75 128 312 483
381 570 153 194 430 434 659 570 36 21 90 54 120 74 30 19 102 56 160 82 366
162 764 232 1130 198z m2150 -2019 c0 -5 -10 -10 -22 -10 -19 0 -20 2 -8 10
19 13 30 13 30 0z m14 -36 c9 -24 7 -28 -9 -14 -17 14 -20 30 -6 30 5 0 12 -7
15 -16z m63 -101 c-8 -7 -37 9 -31 19 3 5 12 4 20 -3 8 -6 13 -14 11 -16z m66
-48 c-6 -18 -34 -16 -41 3 -2 7 6 12 22 12 19 0 24 -4 19 -15z m-137 -131
c-10 -7 -13 -15 -8 -18 16 -9 44 5 38 19 -4 13 23 25 54 25 11 -1 11 -3 -3
-11 -13 -8 -15 -14 -7 -24 6 -7 8 -20 4 -29 -7 -18 -39 -22 -49 -6 -5 8 -11 7
-21 -1 -14 -12 -9 -33 6 -24 5 3 11 1 14 -4 10 -15 -40 -19 -60 -4 -16 12 -12
18 10 14 5 -1 4 4 -2 12 -15 18 -10 56 8 67 21 13 35 -1 16 -16z m64 -224 c0
-5 -4 -10 -9 -10 -6 0 -13 5 -16 10 -3 6 1 10 9 10 9 0 16 -4 16 -10z m-80
-20 c0 -5 -2 -10 -4 -10 -3 0 -8 5 -11 10 -3 6 -1 10 4 10 6 0 11 -4 11 -10z
m-1294 -19 c-3 -5 -15 -7 -26 -4 -28 7 -25 13 6 13 14 0 23 -4 20 -9z m1458
-17 c3 -8 2 -12 -4 -9 -6 3 -10 0 -10 -7 0 -10 -3 -9 -10 2 -6 9 -5 17 3 22
15 10 14 10 21 -8z m-116 -20 c13 -9 29 -13 37 -10 7 2 19 -3 27 -12 9 -11 10
-14 1 -8 -7 4 -13 2 -13 -3 0 -6 -6 -11 -14 -11 -8 0 -17 -6 -19 -12 -4 -10
-8 -10 -16 2 -5 8 -7 18 -5 22 3 5 -5 17 -18 28 -28 23 -12 27 20 4z m-2278
-18 c0 -2 -7 -6 -15 -10 -8 -3 -15 -1 -15 4 0 6 7 10 15 10 8 0 15 -2 15 -4z
m-1377 -53 c-7 -2 -19 -2 -25 0 -7 3 -2 5 12 5 14 0 19 -2 13 -5z m3657 -13
c0 -5 -2 -10 -4 -10 -3 0 -8 5 -11 10 -3 6 -1 10 4 10 6 0 11 -4 11 -10z
m-3366 -25 c4 -10 -2 -11 -26 -4 -42 11 -44 16 -9 17 16 0 32 -5 35 -13z m141
-51 c14 -13 29 -33 35 -44 10 -18 8 -18 -22 -8 -18 6 -39 19 -46 29 -7 10 -19
24 -27 32 -8 8 -11 17 -8 21 10 10 42 -4 68 -30z m3260 -4 c3 -5 -1 -10 -10
-10 -9 0 -13 5 -10 10 3 6 8 10 10 10 2 0 7 -4 10 -10z m-740 -51 c0 -7 -8
-15 -17 -17 -18 -3 -25 18 -11 32 10 10 28 1 28 -15z m-95 -8 c0 -11 -4 -22
-8 -25 -14 -9 -35 12 -29 28 9 23 37 20 37 -3z m-624 -17 c-3 -8 -1 -16 3 -19
17 -10 -1 -43 -24 -48 -13 -2 -24 -1 -23 2 3 28 -3 33 -21 17 -17 -15 -19 -15
-25 -1 -3 9 -2 25 4 34 5 10 7 20 5 23 -3 3 15 5 40 5 34 0 45 -4 41 -13z
m-1746 -8 c0 -2 -7 -7 -16 -10 -8 -3 -12 -2 -9 4 6 10 25 14 25 6z m1574 -48
c-4 -6 0 -14 7 -19 11 -7 11 -9 1 -9 -7 0 -10 -4 -7 -10 3 -5 -3 -10 -14 -10
-10 0 -26 -3 -35 -6 -12 -5 -16 1 -16 23 0 23 6 31 28 39 30 12 46 8 36 -8z
m1218 -40 c10 -15 47 -42 81 -61 119 -66 184 -111 163 -115 -10 -2 -23 3 -28
12 -13 24 -33 19 -47 -10 -8 -19 -17 -25 -31 -21 -13 3 -17 1 -13 -9 3 -8 0
-14 -6 -14 -6 0 -11 5 -11 10 0 6 -4 10 -10 10 -18 0 -11 -28 11 -43 13 -10
16 -16 8 -19 -7 -2 -9 -10 -5 -17 6 -9 11 -9 21 -1 9 8 15 8 20 0 3 -5 -1 -11
-9 -11 -9 -1 -20 -3 -26 -4 -5 -1 -13 -3 -17 -4 -16 -3 23 -21 46 -21 13 0 21
-3 18 -7 -4 -3 -2 -12 4 -20 9 -10 8 -17 -1 -28 -11 -13 -10 -14 5 -9 12 5 16
4 12 -3 -4 -6 5 -21 20 -32 21 -16 23 -20 8 -15 -18 5 -18 5 -2 -6 9 -6 27 -8
39 -4 21 6 21 6 -3 20 -30 16 -19 18 15 3 14 -7 23 -15 21 -19 -3 -5 2 -11 11
-14 8 -3 12 -2 9 4 -3 6 -2 10 4 10 7 0 12 -70 4 -70 -1 0 -14 5 -28 10 -18 7
-32 7 -43 -1 -15 -10 -15 -10 1 -5 10 3 25 -2 35 -12 10 -9 31 -24 46 -32 l29
-15 -29 -6 c-22 -5 -24 -7 -7 -8 30 -1 53 -11 53 -22 0 -5 -12 -7 -27 -4 -27
5 -27 5 -5 -6 23 -12 30 -29 12 -29 -5 0 -10 -9 -10 -20 0 -13 -7 -20 -19 -20
-22 0 -34 -25 -25 -53 5 -17 8 -18 15 -5 7 12 19 15 49 11 42 -6 54 9 28 35
-8 8 -8 12 -1 12 11 0 49 88 45 104 -2 5 4 6 13 2 9 -3 21 -6 26 -6 4 0 6 -7
2 -16 -5 -12 0 -15 23 -12 16 2 29 8 29 15 0 6 3 15 8 19 11 11 9 26 -3 19 -6
-3 -7 1 -4 10 7 18 51 40 73 36 7 -1 10 2 6 8 -3 6 -1 11 5 11 13 0 100 87
116 117 7 12 8 25 3 30 -13 13 26 43 42 32 10 -6 11 -9 2 -9 -7 0 -13 -4 -13
-10 0 -10 51 6 60 19 3 4 26 20 52 35 59 34 149 39 199 10 40 -24 86 -80 95
-117 l7 -29 -31 16 c-42 22 -129 21 -173 -2 -45 -23 -179 -122 -179 -132 0 -5
-18 -11 -40 -15 -23 -4 -40 -12 -40 -20 0 -7 -10 -15 -22 -18 -18 -5 -19 -8
-8 -21 8 -11 9 -16 1 -16 -6 0 -13 -11 -17 -25 -3 -14 -10 -23 -14 -20 -5 3
-12 0 -16 -6 -4 -8 -3 -9 4 -5 17 11 56 -32 43 -48 -6 -7 -8 -16 -4 -19 3 -4
0 -14 -7 -23 -12 -13 -11 -17 1 -25 18 -11 36 -11 44 1 3 5 13 6 22 3 10 -4
14 -2 9 5 -9 15 31 41 55 35 10 -3 35 -2 54 1 28 6 38 14 50 43 10 23 12 39 6
43 -14 8 0 26 26 34 27 8 63 -9 63 -30 0 -8 7 -17 15 -20 8 -4 12 -10 9 -15
-3 -5 0 -9 6 -9 6 0 9 -4 5 -9 -3 -5 -1 -12 4 -15 5 -4 8 -24 7 -46 -2 -22 1
-40 7 -40 5 0 7 -6 4 -14 -3 -8 -3 -17 1 -20 3 -4 7 -19 9 -34 5 -38 24 -125
31 -137 4 -5 8 -32 9 -60 2 -27 5 -68 6 -90 2 -22 0 -58 -5 -80 -4 -22 -12
-82 -18 -134 -15 -122 -42 -197 -86 -237 -30 -27 -40 -31 -74 -27 -35 5 -40 3
-55 -27 -16 -30 -16 -34 0 -49 15 -15 17 -15 30 3 8 10 12 23 9 27 -3 5 -3 9
0 9 2 0 11 2 19 5 8 4 14 0 14 -9 0 -8 -4 -13 -9 -10 -4 3 -8 -1 -8 -9 0 -8
-7 -17 -15 -21 -12 -4 -13 -11 -5 -31 6 -15 8 -31 4 -36 -3 -5 -1 -9 4 -9 12
0 80 29 69 30 -4 0 8 15 28 34 19 19 35 39 35 45 0 6 5 11 10 11 6 0 10 9 10
20 0 11 5 20 12 20 6 0 9 3 5 6 -3 3 5 25 17 48 13 24 22 50 20 59 -1 10 2 17
7 17 5 0 8 3 8 8 -4 22 3 32 21 32 22 0 26 -20 10 -51 -6 -11 -13 -36 -16 -57
-8 -69 -66 -237 -119 -347 -29 -60 -69 -152 -88 -203 -20 -51 -45 -102 -58
-113 -12 -10 -19 -19 -15 -19 4 0 1 -6 -6 -13 -13 -15 -40 -17 -161 -17 -62 1
-77 -2 -71 -12 6 -10 4 -10 -9 0 -9 8 -16 17 -15 20 0 4 0 20 -1 35 -1 31 -21
28 -21 -4 0 -11 -7 -19 -16 -19 -13 0 -14 3 -5 13 6 8 9 24 6 36 -3 18 -1 21
15 16 15 -5 18 -3 14 9 -3 9 -10 16 -14 16 -4 0 -11 12 -14 26 -6 24 -18 238
-20 354 l-1 45 60 30 c33 17 62 33 66 37 8 12 -2 78 -12 78 -20 0 -8 41 16 52
20 9 22 14 14 30 -7 14 -7 24 2 34 10 13 10 17 0 24 -8 5 -10 13 -5 21 6 12 5
12 -9 0 -9 -7 -17 -19 -17 -26 0 -7 -18 -31 -40 -53 -22 -22 -40 -44 -40 -49
0 -17 -31 -73 -40 -73 -23 0 -45 174 -28 219 7 18 5 22 -6 18 -9 -4 -17 1 -20
11 -14 48 -26 145 -24 198 1 32 -1 79 -5 104 -4 25 -9 57 -11 71 -2 15 -11 42
-20 60 -17 37 -27 78 -31 121 -1 15 -7 33 -13 41 -7 8 -9 17 -5 21 4 4 -1 4
-11 0 -14 -5 -15 -9 -5 -15 11 -6 10 -9 -4 -15 -9 -3 -14 -11 -10 -17 9 -15
10 -87 0 -87 -4 0 -5 -4 -2 -10 3 -5 1 -10 -4 -10 -6 0 -11 -8 -11 -17 0 -15
-2 -15 -9 -4 -5 8 -16 11 -25 8 -11 -5 -14 -16 -10 -44 2 -21 8 -39 13 -41 5
-2 7 -20 5 -42 -4 -31 -1 -39 13 -44 15 -4 15 -5 -2 -4 -42 1 -44 -1 -38 -37
5 -31 3 -35 -12 -29 -15 6 -16 5 -4 -17 7 -13 13 -41 14 -62 2 -30 -1 -37 -13
-32 -10 3 -12 1 -8 -10 3 -8 9 -22 12 -30 3 -8 1 -15 -5 -15 -6 0 -8 -7 -4
-16 4 -11 2 -15 -6 -13 -7 3 -13 9 -13 14 0 6 -5 19 -11 30 -9 18 -9 19 7 6
14 -12 16 -12 10 3 -3 9 -14 16 -24 16 -16 0 -17 -4 -9 -32 12 -42 11 -51 -1
-43 -5 3 -10 2 -10 -4 0 -5 5 -13 10 -16 16 -10 12 -25 -7 -25 -15 0 -16 2 -3
10 9 6 10 10 3 10 -17 0 -36 -37 -23 -45 5 -3 10 -14 10 -23 0 -12 -3 -13 -12
-4 -7 7 -15 12 -19 12 -15 0 -20 -40 -8 -62 7 -13 14 -45 16 -73 1 -27 7 -51
13 -53 6 -2 6 -10 -1 -24 -8 -15 -8 -19 0 -14 6 4 11 2 11 -3 0 -6 8 -12 18
-12 16 -1 16 -2 0 -6 -10 -2 -18 -10 -18 -16 -1 -7 -9 -1 -20 12 -11 12 -17
27 -14 32 3 5 2 9 -3 10 -4 0 -16 2 -25 4 -10 2 -18 -1 -18 -6 0 -5 8 -9 18
-9 14 0 14 -2 3 -9 -8 -5 -11 -16 -7 -27 4 -9 2 -20 -4 -24 -8 -5 -8 -15 0
-34 5 -15 7 -32 4 -38 -4 -6 0 -14 7 -20 11 -7 9 -8 -6 -6 -12 2 -19 11 -19
21 1 9 -2 17 -6 17 -4 0 -10 10 -14 23 -7 30 -66 94 -93 101 -12 4 -24 2 -29
-5 -4 -7 -3 -9 4 -5 18 11 59 -15 79 -51 16 -30 16 -35 3 -43 -8 -5 -10 -10
-5 -10 6 0 12 -14 13 -31 1 -17 7 -40 13 -50 5 -11 6 -19 2 -18 -4 1 -16 -1
-26 -6 -28 -12 -32 -5 -42 84 -3 25 -10 50 -16 55 -8 8 -9 -6 -4 -51 5 -50 4
-63 -7 -63 -8 -1 -6 -6 7 -16 21 -16 22 -17 24 -64 1 -21 5 -28 15 -24 20 8
26 -7 32 -78 2 -35 7 -74 10 -88 5 -24 5 -24 -10 -5 -14 19 -15 19 -22 2 -6
-17 -7 -17 -24 0 -9 10 -15 24 -12 31 2 6 0 12 -6 12 -5 0 -12 -9 -15 -20 -3
-12 0 -20 7 -20 15 0 40 -69 35 -95 -6 -31 -27 -28 -34 4 -6 26 -10 30 -29 25
-17 -4 -31 3 -55 26 -30 30 -41 31 -21 0 5 -9 5 -19 -2 -27 -7 -9 -7 -17 2
-28 9 -10 9 -19 2 -27 -5 -7 -8 -32 -5 -55 2 -26 0 -43 -6 -43 -6 0 -11 -4
-11 -9 0 -5 10 -7 22 -3 17 4 20 2 15 -11 -4 -10 -2 -17 5 -17 7 0 7 -4 -1
-14 -7 -8 -8 -17 -3 -20 5 -3 9 -24 10 -46 2 -34 -4 -47 -28 -72 -17 -16 -30
-35 -30 -41 0 -7 4 -6 10 3 8 13 10 12 10 -2 0 -11 -8 -18 -20 -18 -16 0 -20
7 -20 31 0 17 -5 39 -10 49 -7 13 -7 21 1 26 7 4 8 9 1 13 -6 3 -14 19 -17 34
-6 23 -4 29 12 33 15 4 19 14 19 42 -1 34 -3 37 -28 35 -16 -1 -29 2 -29 8 -1
5 -2 13 -3 18 0 5 -4 13 -8 17 -4 3 -5 -4 -2 -17 3 -13 7 -37 10 -54 2 -16 9
-61 15 -100 6 -38 17 -95 25 -125 8 -30 14 -60 14 -67 0 -18 -20 -16 -41 3
-16 15 -17 14 -15 -10 3 -25 -17 -66 -27 -56 -12 12 -15 99 -7 160 9 67 1 128
-16 122 -5 -2 -8 -10 -6 -18 2 -8 -2 -14 -7 -14 -7 0 -7 -9 1 -25 9 -20 9 -28
-1 -38 -9 -9 -14 -9 -21 3 -5 9 -5 17 1 21 6 3 3 11 -7 19 -31 27 -39 63 -48
218 -4 72 -2 77 32 73 10 -2 11 2 2 18 -9 17 -8 21 5 21 8 0 15 4 15 9 0 12
-29 23 -41 16 -5 -4 -6 1 -3 9 3 9 10 16 16 16 5 0 7 4 4 9 -3 5 1 11 9 15 8
3 15 11 15 17 0 8 -4 8 -15 -1 -10 -9 -15 -9 -15 -1 0 11 13 15 39 12 22 -4
43 8 35 20 -4 8 -9 7 -15 -2 -6 -10 -11 -11 -16 -3 -5 6 -16 15 -25 20 -16 9
-16 11 4 23 18 11 20 11 15 -3 -5 -11 -1 -16 14 -16 11 0 18 4 14 9 -3 5 -1
12 5 16 16 10 -26 47 -47 42 -15 -4 -14 -5 5 -6 36 -2 25 -21 -12 -21 -27 0
-34 4 -31 18 2 9 4 22 4 29 1 6 11 14 24 16 18 4 17 4 -6 6 -17 0 -26 5 -22
12 4 6 -2 13 -12 15 -10 3 -24 14 -31 24 -9 15 -9 18 1 14 9 -3 13 4 13 21 0
17 -3 22 -10 15 -13 -13 -26 -13 -26 1 0 5 5 7 10 4 6 -3 10 -1 10 5 0 7 -8 9
-19 5 -10 -3 -24 1 -31 10 -7 8 -9 15 -4 15 5 0 2 4 -5 9 -9 6 -22 6 -32 0
-23 -12 -39 -11 -39 2 0 5 4 7 10 4 6 -3 7 1 4 9 -3 9 -10 16 -16 16 -5 0 -7
-3 -4 -8 2 -4 -7 -12 -20 -19 -13 -6 -22 -8 -19 -4 2 5 -7 13 -20 19 -25 12
-42 1 -30 -18 3 -6 -1 -13 -9 -16 -24 -9 -19 -21 14 -33 41 -14 38 -23 -5 -15
-22 4 -35 2 -35 -5 0 -6 6 -8 13 -6 7 3 13 -4 13 -20 1 -16 -2 -23 -10 -18 -6
3 -2 -3 8 -15 11 -12 14 -22 8 -22 -7 0 -11 -3 -11 -7 3 -21 -3 -24 -18 -12
-15 12 -16 12 -9 -6 5 -11 9 -25 9 -32 0 -7 5 -11 10 -10 5 1 12 -4 15 -12 3
-10 0 -12 -12 -8 -9 4 -16 2 -16 -3 0 -6 10 -10 23 -10 23 0 62 -20 40 -20
-14 0 -12 -55 2 -68 4 -4 6 3 3 15 -4 14 0 27 10 35 13 11 15 10 9 -4 -3 -9 1
-22 8 -28 10 -8 13 -21 8 -38 -4 -19 -3 -23 7 -17 9 5 11 4 6 -3 -4 -6 -2 -20
3 -30 7 -13 7 -22 -1 -30 -8 -8 -9 -12 -1 -12 6 0 14 -7 17 -16 4 -12 2 -15
-9 -11 -8 4 -17 1 -21 -5 -4 -7 -3 -8 4 -4 7 4 12 4 13 -1 0 -4 2 -16 4 -25 3
-15 0 -16 -18 -6 -12 6 -25 16 -29 22 -5 8 -10 8 -18 0 -7 -7 0 -16 25 -30 19
-10 35 -21 36 -24 0 -3 2 -13 4 -22 2 -10 -1 -20 -6 -24 -5 -3 -9 0 -9 5 0 6
-5 11 -11 11 -5 0 -8 -4 -4 -9 3 -5 1 -12 -4 -16 -11 -6 -3 -36 13 -47 7 -5 7
-8 -1 -8 -7 0 -13 -5 -13 -11 0 -5 4 -8 9 -5 13 8 8 -19 -7 -36 -6 -8 -8 -19
-4 -23 4 -5 1 -5 -6 -1 -7 4 -10 12 -7 17 3 5 0 6 -8 3 -8 -3 -18 5 -24 17 -6
15 -12 19 -17 11 -4 -6 2 -19 13 -29 19 -15 20 -40 1 -28 -4 3 -10 -4 -13 -15
-3 -11 -1 -20 4 -20 14 0 11 -38 -3 -43 -9 -4 -7 -6 3 -6 9 -1 16 -7 16 -14 0
-13 -41 -16 -53 -4 -16 16 -23 -7 -9 -29 9 -14 13 -29 10 -34 -8 -13 -42 -13
-50 0 -3 5 0 10 7 10 9 0 9 3 -2 10 -19 12 -53 13 -46 1 4 -5 -3 -7 -14 -4
-19 5 -19 4 -5 -37 13 -37 13 -41 0 -36 -19 7 -15 -12 8 -38 13 -16 15 -22 5
-25 -7 -2 -22 -11 -32 -20 -11 -9 -16 -10 -12 -3 11 18 -24 15 -45 -4 -16 -14
-20 -14 -44 2 -14 9 -22 20 -16 23 6 4 13 29 16 56 7 72 8 74 14 72 3 0 17 3
29 7 17 6 22 13 19 27 -3 11 2 23 11 30 15 9 15 10 -2 5 -14 -5 -17 -2 -12 10
4 11 2 15 -7 11 -24 -9 -7 44 17 53 13 5 15 9 6 10 -9 0 -11 3 -5 8 6 4 11 16
10 27 0 29 29 30 45 1 7 -14 17 -23 22 -20 5 3 4 11 -2 18 -16 20 -9 65 10 58
12 -4 12 -2 -2 15 -10 11 -18 24 -18 30 0 6 -7 16 -15 23 -12 10 -15 10 -15
-3 0 -9 5 -19 10 -22 6 -3 10 -11 10 -16 0 -16 -34 22 -36 40 -7 66 -19 91
-41 91 -9 0 -13 3 -10 7 4 3 -5 16 -18 29 -14 13 -25 28 -25 34 0 6 -14 13
-31 17 -19 4 -34 14 -39 28 -11 28 -30 41 -39 27 -7 -12 -36 -10 -48 3 -4 4
-2 5 5 1 7 -4 12 -1 12 8 0 9 -7 16 -16 16 -8 0 -13 4 -10 9 9 14 -21 33 -54
36 -16 1 -54 20 -84 43 -30 23 -60 42 -67 42 -19 0 8 -26 41 -40 16 -7 27 -16
25 -20 -3 -5 4 -11 15 -15 11 -3 20 -10 20 -15 0 -5 3 -16 6 -24 8 -22 -26 -9
-44 16 -16 22 -36 24 -28 3 4 -12 0 -14 -22 -9 -20 4 -23 3 -12 -5 8 -5 11
-13 7 -17 -4 -4 -19 5 -33 19 -15 15 -31 27 -35 27 -12 0 -11 -17 2 -25 12 -8
-19 -34 -41 -35 -8 0 -28 7 -44 15 -34 18 -44 19 -28 3 19 -19 14 -44 -8 -44
-11 0 -20 4 -20 9 0 5 -16 7 -35 4 -20 -3 -35 -2 -35 4 0 5 -16 9 -36 7 -24
-2 -39 2 -42 10 -3 11 0 12 18 2 15 -8 20 -8 16 -1 -4 6 -16 16 -28 22 -15 8
-19 8 -14 0 11 -17 -15 -13 -38 7 -20 17 -20 17 -3 -10 13 -22 14 -26 3 -22
-13 5 -49 51 -51 64 -2 17 -29 53 -32 43 -4 -12 -58 0 -78 19 -5 5 5 4 23 -3
17 -6 37 -9 44 -6 7 3 4 6 -7 6 -11 1 -34 14 -50 29 -17 15 -26 24 -21 20 6
-5 18 -8 28 -8 10 0 18 -4 18 -8 0 -5 11 -14 23 -19 25 -12 149 5 165 22 6 7
-41 1 -95 -12 -17 -4 -23 -1 -23 11 0 9 -4 16 -8 16 -5 0 -15 12 -22 26 -10
18 -20 24 -33 20 -14 -3 -17 -2 -9 6 6 6 22 11 36 11 15 0 29 4 32 9 3 5 14 6
25 3 13 -4 19 -2 19 9 0 9 6 16 13 16 6 0 4 5 -5 11 -30 17 -21 35 16 34 19
-1 45 4 58 11 13 7 18 13 12 14 -17 0 -10 39 11 58 10 9 15 11 11 5 -7 -13 11
-16 79 -14 l30 1 -25 -11 c-23 -10 -24 -11 -7 -23 9 -7 29 -11 43 -8 20 3 25
2 19 -7 -5 -9 -1 -9 15 1 19 11 23 10 40 -9 10 -13 23 -23 29 -23 20 0 60 -23
55 -31 -3 -5 -1 -9 5 -9 5 0 12 4 15 9 4 5 17 8 31 7 13 -2 22 0 20 5 -3 4 1
10 7 12 7 3 -4 4 -24 2 -30 -3 -38 -1 -39 13 0 10 -3 12 -6 5 -2 -7 -12 -13
-21 -12 -11 0 -12 2 -4 6 6 2 12 12 12 20 0 12 9 14 39 11 24 -2 43 2 51 11
11 11 9 12 -9 6 -12 -4 -34 -4 -49 0 -27 7 -27 7 -4 16 23 9 31 29 11 29 -8 0
-7 6 2 17 11 13 11 17 1 20 -6 3 -10 9 -6 14 3 5 1 9 -5 9 -5 0 -12 -6 -15
-12 -3 -7 -4 -4 -3 7 2 14 9 19 22 17 17 -2 17 -1 5 7 -8 6 -24 8 -35 5 -20
-5 -20 -5 -1 10 11 9 14 16 8 16 -7 0 -12 7 -12 16 0 11 -6 15 -19 11 -28 -7
-36 22 -13 44 22 20 89 22 112 3 12 -10 19 -10 34 2 19 13 19 14 1 14 -27 0
-9 13 37 27 40 12 72 8 63 -7 -3 -5 4 -6 14 -3 11 3 17 11 15 18 -4 10 1 12
15 8 12 -3 21 -1 21 6 0 6 12 11 26 11 14 0 23 4 19 9 -10 18 40 16 58 -2 13
-13 22 -15 36 -8 10 6 42 8 70 4 51 -6 52 -6 49 19 -2 14 -10 34 -18 44 -12
14 -12 16 -1 9 9 -5 12 -4 8 2 -4 6 -21 16 -38 23 -25 11 -32 11 -39 0 -15
-25 -136 -32 -170 -11 -15 10 -21 11 -17 4 5 -7 4 -13 -2 -13 -6 0 -11 5 -11
10 0 6 -5 10 -11 10 -5 0 -8 -4 -5 -8 8 -13 -97 -14 -114 -1 -12 8 -8 9 18 5
18 -3 32 -1 32 4 0 6 9 10 20 10 40 0 207 60 269 97 197 117 342 308 433 573
17 47 32 105 35 130 2 25 8 49 13 54 5 5 6 15 3 23 -5 11 5 13 53 8 33 -3 66
-8 76 -11 9 -3 19 0 23 6 6 9 -10 14 -42 13 -7 -1 -13 5 -13 13 0 16 16 19 25
4 3 -5 16 -10 28 -9 21 1 21 1 -3 12 -14 7 -26 19 -28 27 -2 8 -9 18 -15 22
-7 4 -7 8 -2 8 6 0 4 4 -4 9 -12 8 -12 12 -2 25 7 9 11 23 7 31 -3 10 1 15 12
16 16 1 16 2 -1 6 -9 2 -15 9 -12 14 4 5 2 9 -3 9 -5 0 -12 13 -14 29 -4 27
-3 28 24 21 15 -5 33 -11 40 -15 7 -4 2 3 -12 15 -14 11 -37 26 -52 32 -32 11
-35 20 -13 38 13 10 12 15 -8 31 l-22 18 26 1 c14 0 34 -7 45 -15 10 -8 24
-14 29 -14 21 -1 -42 39 -72 45 -18 3 -33 10 -33 14 0 23 43 55 102 74 87 30
171 23 200 -16z m-1394 4 c2 -7 -2 -10 -12 -6 -9 3 -16 11 -16 16 0 13 23 5
28 -10z m-2640 -10 c-17 -10 -26 -23 -23 -32 2 -8 1 -21 -4 -29 -5 -8 -7 -20
-4 -28 5 -12 8 -11 22 1 11 10 21 12 31 6 13 -8 13 -10 -1 -10 -9 0 -34 -13
-55 -28 -37 -27 -67 -85 -77 -147 -2 -11 -8 -30 -15 -42 -8 -15 -9 -24 -2 -28
8 -5 7 -12 -2 -23 -11 -13 -10 -15 5 -9 13 5 16 3 10 -6 -7 -11 -14 -56 -15
-104 0 -13 -4 -23 -9 -23 -5 0 -9 -8 -9 -17 0 -13 2 -15 8 -5 6 9 15 10 33 3
20 -8 14 -15 -11 -13 -3 0 -6 -11 -6 -24 -2 -28 13 -31 32 -6 19 26 12 -7 -8
-38 -30 -46 -27 -62 17 -75 22 -7 36 -13 32 -14 -4 -1 -2 -11 4 -23 12 -22 11
-22 -6 -8 -17 13 -18 13 -13 -2 5 -11 0 -18 -13 -21 -28 -7 -23 -24 11 -42 17
-9 30 -22 30 -31 0 -8 -4 -13 -9 -10 -11 7 -8 -21 4 -31 4 -4 5 -2 1 5 -4 6
-2 12 3 12 6 0 11 -7 11 -16 0 -12 7 -15 25 -12 14 3 25 1 25 -3 0 -5 5 -9 11
-9 6 0 9 7 6 14 -4 10 -1 13 9 9 16 -6 18 -19 4 -28 -5 -3 -10 -12 -10 -18 0
-8 3 -8 8 -2 7 10 77 45 89 45 3 0 -1 -8 -10 -18 -14 -15 -15 -19 -2 -19 8 0
12 4 9 9 -3 4 7 7 21 6 16 -2 24 -7 21 -15 -7 -16 6 -17 22 -1 16 16 26 3 13
-19 -7 -12 -10 -13 -11 -4 0 10 -3 11 -14 2 -7 -6 -21 -9 -30 -5 -9 3 -16 1
-16 -6 0 -6 -4 -9 -9 -6 -5 3 -12 -1 -15 -10 -3 -8 -2 -12 4 -9 14 9 12 -19
-2 -34 -11 -11 -10 -12 2 -5 22 12 53 14 221 12 56 -1 82 3 99 15 14 9 19 17
12 17 -7 0 -11 4 -8 9 3 5 36 14 73 21 36 6 74 15 84 20 9 5 35 12 57 14 21 3
50 9 63 14 14 5 37 4 56 -3 27 -9 30 -13 18 -28 -7 -9 -23 -17 -36 -18 l-24
-1 25 -8 c14 -4 19 -8 11 -9 -8 -1 -12 -3 -10 -6 8 -8 49 7 43 16 -3 5 2 6 10
3 9 -3 16 -10 16 -15 0 -5 10 -8 23 -8 17 1 18 2 4 6 -14 4 -15 8 -7 18 8 9 8
15 0 20 -15 9 -2 25 15 19 7 -3 11 -12 8 -20 -6 -15 -2 -17 20 -8 9 3 13 13 9
26 -4 19 -2 20 22 14 15 -4 26 -3 23 1 -7 11 14 28 38 30 18 2 18 1 -2 -9 -39
-19 -25 -27 16 -10 25 11 37 21 33 30 -4 11 1 13 16 7 14 -4 22 -2 22 5 0 6 5
8 12 4 6 -4 8 -3 4 4 -8 13 41 65 55 57 5 -3 6 0 3 8 -6 16 32 31 41 17 17
-27 -42 -210 -97 -303 -15 -26 -28 -50 -28 -53 0 -15 -97 -129 -154 -180 -182
-167 -406 -225 -661 -172 -62 13 -181 68 -216 99 -15 13 -54 48 -89 78 -79 69
-155 171 -215 291 l-47 93 7 88 c7 87 7 88 -24 133 -18 25 -37 46 -43 46 -16
0 -3 195 17 253 9 26 27 54 38 62 12 8 16 15 10 15 -33 0 39 116 112 182 39
35 125 87 172 104 52 18 63 17 31 -4z m2597 -21 c-3 -6 -14 -10 -23 -10 -15 1
-15 2 1 6 9 2 17 9 17 15 0 6 3 9 6 5 3 -3 3 -10 -1 -16z m40 9 c3 -5 -1 -10
-9 -10 -9 0 -16 5 -16 10 0 6 4 10 9 10 6 0 13 -4 16 -10z m-15 -91 c0 -5 -9
-9 -20 -9 -17 0 -19 2 -8 14 13 14 28 12 28 -5z m-1950 -15 c0 -8 -4 -13 -8
-10 -5 3 -7 -15 -6 -40 3 -44 -1 -51 -21 -36 -12 8 -10 52 4 100 4 10 31 -1
31 -14z m155 -8 c-2 -12 -4 -24 -4 -28 -1 -4 -7 -5 -14 -2 -15 5 -19 34 -5 34
5 0 7 4 4 8 -3 5 1 9 9 9 9 0 13 -8 10 -21z m-358 0 c-3 6 1 11 9 11 8 0 13
-6 10 -13 -3 -8 0 -11 9 -8 8 3 22 -1 30 -10 9 -9 23 -16 31 -16 18 0 18 -14
-1 -30 -9 -7 -13 -15 -10 -18 14 -14 -125 -58 -208 -66 -15 -2 -30 -6 -34 -9
-3 -4 -15 1 -25 10 -15 14 -19 14 -16 3 2 -8 -3 -14 -9 -12 -7 1 -13 -3 -13
-9 0 -7 -9 0 -21 15 -11 14 -24 24 -28 22 -4 -3 -8 1 -8 9 0 18 23 20 30 3 3
-8 6 -5 6 6 1 12 6 16 16 13 8 -4 17 -2 20 3 4 6 -2 10 -12 10 -13 0 -10 5 12
20 17 11 39 20 51 20 11 0 24 4 30 9 5 6 22 12 38 15 15 3 38 12 50 19 16 11
24 12 35 3 10 -7 13 -7 8 0z m2175 7 c-6 -2 -10 -9 -6 -14 3 -5 -2 -12 -11
-16 -10 -3 -21 0 -26 8 -9 15 11 28 41 28 10 -1 11 -2 2 -6z m-3154 -61 c3
-16 -2 -22 -17 -22 -24 0 -35 15 -27 36 9 23 40 13 44 -14z m90 6 c-4 -27 -33
-36 -42 -13 -8 22 1 35 25 35 15 0 20 -6 17 -22z m3057 2 c3 -6 -1 -7 -9 -4
-18 7 -21 14 -7 14 6 0 13 -4 16 -10z m-933 -54 c17 -11 35 -38 48 -74 11 -32
25 -65 31 -76 7 -11 7 -22 1 -28 -11 -11 -4 -58 9 -58 5 0 9 -7 9 -15 0 -8 -5
-15 -12 -15 -6 0 -1 -9 11 -19 15 -13 18 -20 9 -23 -11 -4 -10 -8 0 -21 8 -9
11 -21 8 -26 -4 -5 -2 -12 4 -16 6 -4 8 -11 5 -16 -4 -5 -1 -9 5 -9 6 0 9 -4
6 -9 -4 -5 0 -12 6 -14 10 -4 9 -8 -2 -16 -12 -9 -12 -11 3 -17 20 -7 23 -40
5 -48 -7 -3 -3 -3 9 0 17 4 21 2 17 -9 -3 -8 2 -17 13 -21 15 -6 15 -8 3 -16
-10 -6 -11 -10 -3 -10 7 0 10 -7 7 -15 -4 -11 -2 -13 9 -10 15 6 31 -20 22
-36 -4 -5 1 -6 9 -3 10 4 16 1 16 -8 0 -7 11 -25 24 -40 14 -14 22 -29 19 -32
-4 -3 0 -6 7 -6 7 0 11 -3 7 -6 -3 -3 7 -17 23 -31 35 -29 102 -137 104 -167
1 -24 -24 -55 -38 -48 -6 3 0 -8 12 -26 16 -21 28 -29 39 -25 10 4 14 2 9 -5
-3 -6 -2 -13 4 -17 5 -3 10 -11 10 -16 0 -6 -6 -7 -12 -3 -10 6 -10 4 0 -8 7
-8 10 -23 6 -32 -4 -10 -1 -16 8 -16 18 0 61 -44 52 -53 -4 -4 1 -9 10 -13 21
-8 45 -54 62 -117 10 -40 10 -50 -3 -62 -8 -8 -11 -20 -7 -27 5 -8 0 -7 -11 2
-17 14 -18 14 -7 -6 12 -22 7 -34 -12 -34 -6 0 -4 5 4 10 13 8 12 10 -2 10
-10 0 -18 5 -18 11 0 8 -5 8 -15 -1 -8 -7 -25 -10 -39 -6 -13 3 -26 2 -28 -4
-2 -6 -14 -4 -30 4 -15 8 -29 12 -32 9 -6 -6 -86 38 -86 48 0 4 6 10 13 12 7
3 5 6 -5 6 -10 1 -18 7 -18 14 0 7 -3 8 -8 2 -4 -5 -18 -11 -31 -13 -20 -2
-22 0 -11 13 11 14 10 14 -15 5 -23 -9 -26 -8 -22 4 6 16 -16 12 -40 -6 -7 -5
-13 -4 -16 4 -4 8 -6 7 -6 -4 -1 -19 -21 -26 -21 -7 0 5 -5 7 -10 4 -8 -5 -7
-11 0 -20 9 -11 6 -13 -17 -10 -15 1 -27 8 -26 14 4 16 -2 14 -18 -6 -12 -14
-12 -16 0 -8 10 6 12 4 6 -4 -5 -9 -10 -10 -18 -2 -14 14 -30 14 -22 1 7 -12
-19 -42 -29 -33 -3 3 -12 0 -21 -7 -8 -7 -22 -10 -30 -6 -9 3 -13 2 -10 -4 13
-22 -63 -35 -92 -17 -8 5 -13 3 -13 -3 0 -7 -6 -8 -18 -1 -23 12 -45 -1 -36
-22 3 -9 1 -17 -4 -17 -6 0 -12 7 -14 16 -2 13 -8 11 -31 -10 -15 -14 -37 -26
-49 -26 -13 0 -18 -5 -15 -14 8 -21 -23 -14 -75 17 -32 19 -56 27 -75 24 -39
-7 -63 -18 -63 -28 0 -5 -6 -9 -13 -9 -7 0 -29 -16 -49 -36 -21 -19 -42 -33
-48 -29 -5 3 -7 0 -4 -9 4 -10 -2 -15 -17 -18 -22 -3 -21 -6 22 -52 54 -57
134 -89 191 -76 18 4 27 8 21 9 -7 1 -13 10 -13 21 0 19 4 21 38 24 7 1 17 7
21 15 5 8 16 11 25 8 9 -4 16 -3 16 2 0 4 14 5 31 3 25 -4 28 -7 16 -14 -23
-12 -11 -41 12 -29 19 11 34 3 39 -19 2 -8 10 -23 19 -32 14 -15 14 -19 0 -33
-9 -8 -26 -15 -39 -16 -13 0 -17 -3 -10 -6 8 -3 5 -11 -12 -24 -25 -20 -52
-26 -42 -10 9 14 -20 21 -33 8 -6 -6 -11 -8 -11 -4 0 9 47 54 61 59 9 3 9 7 3
11 -11 7 -54 -23 -87 -60 -12 -13 -28 -23 -36 -23 -13 1 -12 4 4 18 20 17 31
42 19 42 -13 0 -84 -44 -84 -52 0 -7 -64 -38 -78 -38 -3 0 3 9 13 20 10 11 14
20 9 20 -15 0 -28 -14 -45 -45 -10 -20 -22 -29 -35 -28 -10 1 -13 0 -6 -3 6
-3 9 -10 6 -16 -4 -6 1 -8 15 -3 11 3 21 4 21 1 0 -9 -60 -37 -68 -32 -5 3
-26 -33 -48 -79 -21 -47 -43 -85 -48 -85 -4 0 -5 8 -1 18 16 39 23 72 15 72
-8 0 -33 -55 -34 -77 -1 -14 -26 -41 -26 -28 0 4 -9 0 -20 -10 -15 -14 -23
-16 -32 -7 -14 14 6 42 31 43 11 0 12 2 3 6 -7 3 -24 -2 -37 -11 -14 -9 -26
-15 -28 -14 -2 2 -12 -4 -22 -12 -17 -14 -18 -13 -12 3 10 27 -9 20 -29 -10
-10 -16 -19 -23 -22 -15 -2 6 -15 12 -28 12 -32 0 -31 22 3 68 l27 37 -28 -25
c-15 -14 -34 -38 -42 -53 -15 -28 -93 -107 -105 -107 -11 0 -19 29 -13 48 3 9
-9 1 -28 -19 -19 -19 -40 -33 -46 -31 -7 2 -9 9 -6 14 4 7 2 8 -5 4 -9 -6 -9
-11 0 -22 10 -12 8 -18 -7 -29 -23 -17 -43 -20 -26 -3 7 7 12 16 12 21 0 11
-43 -40 -59 -70 -17 -34 -14 -34 21 -2 18 16 41 29 52 29 19 0 19 -1 -2 -20
-12 -12 -22 -30 -22 -40 0 -11 -9 -37 -20 -57 -11 -21 -20 -47 -20 -59 0 -12
-7 -27 -15 -34 -8 -7 -15 -22 -15 -34 0 -17 2 -18 10 -6 8 12 10 10 10 -8 0
-13 -4 -21 -9 -17 -5 3 -12 1 -16 -5 -3 -5 1 -10 11 -10 12 0 15 -6 12 -25 -3
-13 -2 -22 2 -20 4 3 11 -6 14 -20 4 -14 13 -25 21 -25 8 0 15 -9 15 -20 0
-13 5 -18 15 -14 10 4 15 0 15 -15 0 -12 5 -21 10 -21 6 0 10 -9 10 -19 0 -11
4 -22 9 -26 5 -3 12 -19 16 -35 4 -17 11 -30 17 -30 6 0 9 -2 6 -6 -3 -3 5
-24 18 -47 13 -23 29 -53 36 -67 7 -14 19 -29 26 -33 11 -7 10 -13 -3 -33 -8
-13 -12 -24 -8 -24 5 0 1 -4 -7 -10 -9 -6 -20 -5 -30 3 -13 11 -13 10 -1 -5 7
-10 20 -18 29 -18 10 0 4 -10 -16 -30 -32 -31 -54 -41 -33 -16 9 10 8 16 -4
26 -13 10 -15 9 -15 -8 0 -14 -5 -20 -14 -16 -14 5 -17 -18 -4 -32 4 -3 4 -12
1 -20 -3 -8 0 -14 7 -14 7 0 10 -7 6 -15 -3 -8 -1 -15 4 -15 11 0 5 -37 -10
-54 -5 -7 -7 -16 -3 -20 4 -3 -1 -12 -10 -19 -9 -6 -17 -19 -19 -27 -2 -8 -11
-21 -22 -29 -15 -12 -19 -12 -27 0 -5 9 0 22 16 39 24 25 35 57 16 45 -5 -3
-13 0 -17 7 -5 8 -10 6 -16 -8 -7 -16 -8 -17 -5 -1 1 10 5 18 10 18 4 -1 16
-1 27 -1 11 0 20 -7 20 -15 0 -8 4 -15 10 -15 6 0 6 9 1 23 -5 12 -14 21 -20
20 -13 -4 -15 23 -2 31 5 3 7 15 4 27 -4 12 0 25 8 30 8 5 9 9 3 9 -5 0 -10
16 -11 35 -1 20 -6 41 -12 49 -6 7 -8 16 -5 19 4 3 3 14 0 24 -6 15 -9 14 -20
-7 -9 -19 -9 -27 0 -35 18 -15 25 -48 14 -65 -8 -13 -11 -13 -22 -1 -7 8 -8
11 -2 8 14 -8 11 30 -4 45 -7 7 -12 20 -12 30 0 10 -5 18 -12 18 -6 0 -8 3 -5
6 4 4 13 1 22 -6 9 -7 15 -8 15 -2 0 5 -14 15 -31 21 -33 11 -58 37 -59 59 0
7 -7 20 -15 28 -8 9 -15 25 -15 36 0 12 -3 18 -7 15 -11 -12 -33 15 -33 40 0
14 -4 21 -10 18 -5 -3 -10 1 -10 9 0 19 -11 21 -28 4 -17 -17 -27 15 -13 41
18 34 12 37 -13 8 -14 -16 -29 -26 -35 -23 -11 7 -2 48 13 58 8 6 8 8 -1 8 -6
0 -22 -13 -36 -29 -14 -17 -28 -27 -31 -24 -3 4 -6 0 -6 -8 0 -11 -2 -11 -10
1 -15 23 -12 66 5 80 16 14 10 34 -7 24 -7 -4 -8 -2 -4 5 4 6 12 9 17 6 5 -4
9 1 9 9 0 8 -4 18 -10 21 -19 12 -10 44 20 75 17 17 30 33 30 35 0 8 -35 -7
-45 -20 -5 -6 -18 -14 -27 -18 -10 -3 -18 -11 -18 -17 0 -6 6 -8 13 -5 6 4 5
1 -3 -7 -9 -7 -14 -20 -12 -29 1 -9 -5 -22 -14 -30 -16 -12 -17 -12 -12 2 4 9
1 27 -6 41 -7 13 -11 34 -9 47 2 15 -1 21 -9 18 -7 -2 -12 -9 -11 -15 1 -5 -6
-8 -15 -5 -12 3 -18 -2 -19 -15 -1 -11 -9 -36 -18 -58 l-16 -38 -15 28 c-19
39 -23 88 -6 94 11 3 12 0 3 -15 -8 -15 -7 -25 4 -39 13 -18 14 -17 8 6 -6 23
-5 24 12 10 17 -14 18 -13 12 16 -7 36 0 49 19 33 9 -8 11 -5 7 10 -3 12 -10
21 -15 21 -16 0 -35 24 -30 40 2 8 -3 5 -12 -7 -14 -18 -24 -22 -56 -19 -27 3
-40 0 -44 -10 -7 -19 -26 -18 -26 1 0 8 5 15 11 15 13 0 1 42 -15 52 -16 10
-14 127 2 168 8 19 23 47 34 63 11 15 14 27 8 27 -15 0 -60 -50 -60 -66 0 -17
-20 -18 -21 -1 -2 17 -1 19 7 42 7 20 7 20 -9 0 -15 -20 -15 -20 -22 5 -3 14
-2 38 4 52 8 22 7 27 -11 31 -18 5 -20 11 -13 44 8 44 10 128 3 158 -3 11 -3
24 -1 28 3 4 4 61 4 125 0 64 -1 192 0 285 0 145 -2 167 -15 167 -10 0 -16 9
-16 23 0 18 -2 19 -10 7 -5 -8 -7 -27 -5 -42 3 -16 2 -28 -2 -28 -5 0 -8 -12
-9 -27 -1 -33 -9 -72 -24 -119 -7 -20 -9 -38 -6 -41 3 -3 -4 -22 -16 -41 -17
-28 -19 -38 -10 -53 14 -22 16 -89 3 -89 -4 0 -13 21 -19 48 -6 26 -20 81 -31
122 -12 41 -30 125 -41 185 -11 61 -27 136 -34 168 -8 31 -10 57 -5 57 5 0 9
-4 9 -10 0 -20 2 -26 19 -55 15 -25 32 -74 33 -95 0 -3 5 -14 11 -25 6 -11 11
-23 12 -27 0 -3 3 -10 8 -14 8 -8 11 34 8 116 -5 125 -6 340 -1 340 3 0 10 11
16 24 10 21 8 28 -10 45 -12 12 -26 21 -30 21 -4 0 -27 14 -51 31 -34 25 -51
30 -79 27 l-36 -4 0 41 c0 49 31 102 67 116 28 10 94 4 125 -12 9 -5 24 -32
33 -61 57 -175 234 -404 388 -502 112 -72 283 -126 399 -126 45 0 49 -2 43
-20 -4 -14 -2 -20 7 -18 7 2 12 -3 10 -10 -1 -8 2 -11 7 -8 5 4 12 2 16 -3 3
-5 45 -9 94 -9 48 1 93 -2 99 -6 7 -4 12 -3 12 2 0 9 41 21 88 25 12 1 22 6
22 11 0 5 8 2 17 -5 9 -8 14 -9 10 -3 -6 10 15 25 58 39 13 4 16 8 7 14 -6 4
3 7 22 7 35 0 65 21 59 40 -2 7 8 14 22 18 14 4 25 11 25 16 0 6 7 10 15 10 8
0 15 5 15 10 0 6 -4 10 -10 10 -10 0 -4 20 30 94 11 25 20 47 20 49 0 3 33 61
74 130 114 193 179 369 206 562 14 100 58 260 82 300 24 41 68 54 168 51 62
-1 92 -7 112 -20z m2473 5 c-3 -6 -11 -11 -16 -11 -5 0 -4 6 3 14 14 16 24 13
13 -3z m-3518 -51 c1 -14 -4 -20 -18 -20 -11 0 -17 5 -14 10 3 6 0 10 -7 11
-7 0 -4 4 7 9 29 12 31 12 32 -10z m-112 -20 c0 -16 -5 -24 -14 -22 -12 3 -12
0 -2 -12 11 -13 10 -17 -3 -22 -9 -3 -16 -12 -16 -20 0 -21 -37 -36 -95 -36
-59 -1 -79 7 -71 28 3 7 1 16 -5 20 -17 10 -21 -3 -9 -26 10 -18 9 -24 -1 -31
-20 -13 -49 -11 -63 4 -11 11 -10 16 3 32 23 27 71 61 101 70 14 4 30 11 35
16 6 4 28 10 48 12 21 2 41 7 44 11 4 4 16 6 28 4 14 -2 20 -11 20 -28z
m-1121 6 c31 -13 67 -69 53 -83 -9 -9 -36 16 -53 49 -8 15 -22 28 -32 28 -9 0
-24 5 -32 10 -24 16 24 13 64 -4z m4841 -106 c-21 -8 -35 -4 -35 9 0 5 12 6
27 3 24 -5 25 -6 8 -12z m-465 -7 c0 -3 -7 -2 -16 1 -12 4 -14 1 -9 -14 5 -16
2 -19 -14 -17 -27 4 -40 17 -17 17 9 0 15 4 12 9 -4 5 0 11 6 14 14 4 38 -2
38 -10z m585 -123 c3 -5 -1 -10 -9 -10 -9 0 -16 5 -16 10 0 6 4 10 9 10 6 0
13 -4 16 -10z m-809 -23 c-3 -12 -10 -47 -16 -77 -6 -30 -15 -64 -19 -75 -5
-11 -21 -50 -35 -86 -46 -112 -97 -190 -186 -280 -98 -99 -175 -148 -305 -191
-148 -50 -353 -50 -473 -1 -97 40 -301 200 -286 224 4 7 3 9 -4 5 -6 -3 -18 4
-26 16 -12 17 -13 24 -3 30 8 5 3 8 -13 9 -14 0 -19 3 -12 6 10 4 9 9 -5 20
-10 8 -11 11 -3 7 8 -4 2 6 -15 22 -34 33 -55 67 -55 89 0 8 -6 15 -12 15 -7
1 -2 10 11 20 25 21 21 26 -9 10 -14 -7 -20 -6 -24 7 -4 9 -1 20 6 25 10 6 10
8 -1 8 -9 0 -11 7 -8 21 4 15 2 19 -8 15 -20 -7 -30 13 -15 27 9 9 11 9 7 1
-4 -7 2 -14 14 -17 12 -3 18 -10 14 -16 -3 -6 1 -11 9 -11 9 0 16 -4 16 -9 0
-5 9 -11 21 -14 12 -3 18 -10 14 -16 -3 -6 -1 -11 4 -11 6 0 11 7 11 15 0 8 6
15 13 15 8 0 7 4 -3 11 -12 8 -9 9 12 5 30 -7 61 2 52 15 -3 5 -1 9 5 9 5 0
13 -5 16 -11 4 -6 24 -8 52 -4 32 4 43 3 38 -5 -4 -7 -16 -10 -26 -7 -11 3
-19 1 -19 -3 0 -5 -8 -11 -17 -13 -10 -3 6 -3 35 -1 53 5 60 -1 53 -40 -1 -5
4 -5 11 1 22 18 62 27 53 13 -6 -10 -3 -10 11 -2 13 7 25 7 37 0 26 -13 86
-13 100 1 6 6 20 11 32 11 17 0 18 -2 5 -11 -12 -8 -12 -9 5 -7 11 1 26 -2 34
-6 11 -7 13 -5 8 7 -3 10 -2 17 3 17 6 0 10 -6 10 -12 0 -7 5 -5 11 5 7 12 15
15 27 9 9 -4 53 -7 97 -5 44 2 127 3 184 4 58 0 113 5 122 10 11 6 20 5 24 -1
3 -5 12 -10 18 -10 7 0 6 4 -3 10 -11 7 -6 10 22 10 20 0 39 4 42 9 7 11 75
19 78 9 2 -4 13 -5 26 -1 21 5 21 7 8 22 -14 15 -14 19 2 32 21 18 24 19 65
19 30 1 31 2 13 15 -22 17 -12 36 17 34 40 -4 80 1 74 8 -4 3 5 14 19 24 16
10 22 19 15 24 -15 8 -4 25 16 25 11 0 14 -6 9 -23z m-2359 -25 c4 -23 -7
-116 -16 -130 -3 -6 -20 -13 -36 -17 l-30 -7 28 25 c25 22 26 28 16 51 -10 22
-9 29 7 47 10 12 17 31 16 43 -2 11 0 17 4 13 4 -4 9 -15 11 -25z m-200 2 c-3
-3 -12 -4 -19 -1 -8 3 -5 6 6 6 11 1 17 -2 13 -5z m138 -54 c3 -5 1 -10 -4
-10 -6 0 -11 5 -11 10 0 6 2 10 4 10 3 0 8 -4 11 -10z m3215 -64 c0 -2 -7 -7
-16 -10 -8 -3 -12 -2 -9 4 6 10 25 14 25 6z m938 -104 c16 -71 15 -132 0 -132
-9 0 -8 -4 2 -10 8 -5 10 -10 4 -10 -18 0 -24 12 -14 30 10 19 -10 46 -25 32
-4 -4 -3 2 2 13 6 11 9 49 8 83 -3 73 6 71 23 -6z m-2753 20 c-3 -3 -11 0 -18
7 -9 10 -8 11 6 5 10 -3 15 -9 12 -12z m-2472 -66 c14 -20 14 -25 2 -30 -10
-3 -12 0 -8 11 4 9 2 14 -3 10 -5 -3 -10 3 -10 14 0 24 0 24 19 -5z m197 -62
c0 0 -9 -9 -19 -18 -14 -13 -21 -14 -27 -5 -4 8 -3 10 4 5 7 -4 12 -3 12 3 0
5 -6 11 -12 14 -7 2 -1 4 14 3 16 0 28 -1 28 -2z m25 -24 c3 -5 1 -10 -4 -10
-6 0 -11 5 -11 10 0 6 2 10 4 10 3 0 8 -4 11 -10z m125 -30 c0 -5 -7 -6 -17
-3 -9 4 -14 2 -11 -3 4 -5 -4 -10 -16 -10 -13 -1 -23 3 -23 10 0 6 15 12 34
13 18 2 33 -1 33 -7z m4880 -66 c0 -8 -4 -14 -10 -14 -5 0 -10 2 -10 4 0 2 -3
12 -6 20 -5 12 -2 15 10 10 9 -3 16 -12 16 -20z m-20 -120 c0 -3 -8 -37 -17
-77 -9 -40 -16 -75 -15 -79 1 -5 -3 -8 -9 -8 -5 0 -8 -4 -4 -10 3 -5 -2 -39
-12 -75 -16 -59 -20 -65 -43 -64 -14 0 -19 3 -12 6 6 2 12 13 12 22 0 10 3 21
8 25 7 7 8 11 11 37 0 5 5 8 11 4 5 -3 7 8 5 27 -2 18 2 45 9 60 9 17 10 30 4
36 -7 7 -3 18 11 33 11 13 21 33 21 46 0 13 5 23 10 23 6 0 10 -2 10 -6z
m-2093 -251 c-8 -7 -37 9 -31 19 3 5 12 4 20 -3 8 -6 13 -14 11 -16z m-357
-103 c0 -5 -2 -10 -4 -10 -3 0 -8 5 -11 10 -3 6 -1 10 4 10 6 0 11 -4 11 -10z
m-130 -14 c0 -2 -7 -7 -16 -10 -8 -3 -12 -2 -9 4 6 10 25 14 25 6z m20 -88 c0
-11 -28 -10 -35 1 -3 6 4 9 15 8 11 -1 20 -5 20 -9z m-53 -124 c-3 -3 -12 -4
-19 -1 -8 3 -5 6 6 6 11 1 17 -2 13 -5z m-60 -10 c-3 -3 -12 -4 -19 -1 -8 3
-5 6 6 6 11 1 17 -2 13 -5z m20 -20 c-3 -3 -12 -4 -19 -1 -8 3 -5 6 6 6 11 1
17 -2 13 -5z m83 -34 c0 -5 -7 -7 -15 -4 -8 4 -15 8 -15 10 0 2 7 4 15 4 8 0
15 -4 15 -10z m760 -20 c22 5 81 -8 94 -21 3 -2 -9 -12 -25 -21 -24 -14 -29
-15 -29 -3 0 9 9 15 22 15 30 0 19 8 -21 15 -19 3 -30 2 -27 -4 3 -5 -2 -12
-11 -16 -10 -3 -19 -1 -21 4 -2 6 -12 11 -23 11 -12 0 -16 5 -13 15 4 10 11
12 18 7 6 -5 22 -6 36 -2z m77 -76 c-3 -3 -12 -4 -19 -1 -8 3 -5 6 6 6 11 1
17 -2 13 -5z m-92 -34 c3 -5 2 -10 -4 -10 -5 0 -13 5 -16 10 -3 6 -2 10 4 10
5 0 13 -4 16 -10z m-1156 -47 c2 -2 -5 -3 -17 -3 -14 0 -22 6 -22 16 0 14 3
15 18 3 9 -7 19 -15 21 -16z m1816 -13 c3 -5 1 -10 -4 -10 -6 0 -11 5 -11 10
0 6 2 10 4 10 3 0 8 -4 11 -10z m-4515 -19 c0 -6 -4 -13 -10 -16 -5 -3 -10 1
-10 9 0 9 5 16 10 16 6 0 10 -4 10 -9z m1860 -11 c0 -5 -5 -10 -11 -10 -5 0
-7 5 -4 10 3 6 8 10 11 10 2 0 4 -4 4 -10z m-210 -44 c0 -2 -7 -7 -16 -10 -8
-3 -12 -2 -9 4 6 10 25 14 25 6z m-110 -41 c-7 -8 -17 -15 -22 -15 -6 0 -5 7
2 15 7 8 17 15 22 15 6 0 5 -7 -2 -15z m1375 -94 c-6 -5 -25 10 -25 20 0 5 6
4 14 -3 8 -7 12 -15 11 -17z m518 -8 c-3 -7 1 -13 8 -13 11 0 11 -3 -1 -10 -8
-5 -20 -10 -26 -10 -14 0 -13 52 1 62 12 9 25 -11 18 -29z m1103 -41 c1 -17
-3 -32 -8 -32 -5 0 -4 -8 1 -18 5 -10 9 -24 9 -32 -3 -47 3 -71 15 -64 9 6 8
3 -1 -8 -8 -9 -20 -14 -27 -12 -11 5 -12 0 -5 -25 5 -20 5 -33 -2 -37 -6 -4
-5 -10 3 -16 9 -5 4 -6 -15 -2 -27 6 -28 6 -16 -15 6 -13 9 -30 5 -39 -5 -13
-10 -10 -25 15 -18 30 -19 69 -4 121 6 22 5 23 -14 11 -22 -14 -37 -53 -27
-69 11 -17 -1 -11 -29 15 -21 19 -25 29 -17 39 13 16 11 118 -3 128 -8 5 -7
11 0 18 9 9 14 3 22 -20 6 -17 8 -38 5 -46 -5 -14 -3 -15 15 -5 12 7 22 21 22
31 0 14 7 20 21 20 13 0 20 6 18 18 -5 50 1 61 29 59 23 -2 27 -7 28 -35z
m-1031 17 c11 -17 -1 -21 -15 -4 -8 9 -8 15 -2 15 6 0 14 -5 17 -11z m-2124
-26 c-12 -20 -14 -14 -5 12 4 9 9 14 11 11 3 -2 0 -13 -6 -23z m3619 -37 c0
-3 -4 -8 -10 -11 -5 -3 -10 -1 -10 4 0 6 5 11 10 11 6 0 10 -2 10 -4z m-2454
-64 c-12 -11 -17 7 -9 34 l8 29 3 -28 c2 -16 1 -31 -2 -35z m2044 8 c0 -5 -2
-10 -4 -10 -3 0 -8 5 -11 10 -3 6 -1 10 4 10 6 0 11 -4 11 -10z m-3689 -89
c-7 -5 -12 -12 -11 -17 1 -5 -3 -10 -9 -12 -6 -2 -11 0 -11 4 0 12 33 45 39
39 3 -4 0 -10 -8 -14z m3654 -1 c3 -5 1 -10 -4 -10 -6 0 -11 5 -11 10 0 6 2
10 4 10 3 0 8 -4 11 -10z m-115 -59 c0 -6 -4 -13 -10 -16 -5 -3 -10 1 -10 9 0
9 5 16 10 16 6 0 10 -4 10 -9z m-2440 -27 c0 -17 12 -18 27 -3 7 7 15 6 26 -5
12 -13 21 -14 49 -4 18 6 36 15 39 20 3 5 12 2 19 -7 10 -12 10 -15 -4 -15 -9
0 -15 -6 -13 -12 1 -7 -8 -14 -20 -16 -12 -2 -27 -10 -33 -18 -7 -8 -23 -14
-37 -14 -14 0 -21 -4 -18 -10 3 -5 -1 -10 -9 -10 -8 0 -18 5 -21 11 -4 6 -26
9 -49 8 -23 -2 -48 1 -56 6 -10 6 -12 4 -7 -8 3 -10 2 -17 -2 -17 -5 0 -11 7
-15 15 -3 8 -10 15 -16 15 -6 0 -9 -4 -5 -9 3 -5 2 -12 -3 -15 -4 -2 -9 9 -10
25 -1 16 3 29 8 29 6 0 8 5 5 11 -4 6 2 13 14 16 12 3 21 9 21 14 0 5 16 8 35
7 19 -1 38 1 41 5 10 9 34 -4 34 -19z m-1872 -66 c1 -115 7 -167 19 -179 8 -8
8 -22 1 -47 -14 -54 -31 -66 -26 -20 2 21 0 39 -6 41 -16 5 -13 230 3 285 5
16 8 -13 9 -80z m4287 23 c3 -23 0 -31 -11 -31 -14 0 -14 -2 0 -16 17 -17 22
-59 6 -49 -5 3 -10 3 -11 -2 0 -4 -2 -22 -3 -40 -1 -17 -8 -38 -14 -46 -7 -7
-10 -16 -8 -18 3 -2 -3 -15 -13 -28 -20 -26 -19 -29 -27 77 -4 49 -3 77 5 85
8 8 11 7 11 -3 0 -10 4 -8 14 5 13 18 13 18 24 -1 6 -10 14 -16 18 -12 10 10
-15 38 -35 38 -9 1 -2 7 14 15 17 7 24 14 18 14 -14 1 -18 33 -6 44 9 10 14 3
18 -32z m-2438 -47 c-3 -3 -12 -4 -19 -1 -8 3 -5 6 6 6 11 1 17 -2 13 -5z
m-392 -44 c-5 -8 -11 -8 -17 -2 -6 6 -7 16 -3 22 5 8 11 8 17 2 6 -6 7 -16 3
-22z m-118 -10 c-6 -11 -18 -20 -26 -20 -10 0 -7 6 7 19 12 10 18 22 14 26 -4
5 -1 5 5 1 10 -5 10 -11 0 -26z m333 14 c0 -12 7 -15 28 -10 23 4 22 3 -7 -10
-22 -10 -36 -12 -40 -5 -4 6 -12 7 -21 1 -8 -6 -26 -10 -40 -10 -20 0 -22 2
-10 10 8 5 25 10 38 10 12 0 25 7 28 15 8 20 24 19 24 -1z m2210 -47 c0 -5 -4
-5 -10 -2 -5 3 -10 14 -10 23 0 15 2 15 10 2 5 -8 10 -19 10 -23z m537 3 c1
-11 -4 -20 -13 -20 -17 0 -18 12 -2 28 7 7 12 12 13 12 0 0 1 -9 2 -20z
m-4291 -43 c6 -6 -19 -77 -27 -77 -4 0 -12 8 -18 17 -5 10 -13 15 -16 11 -4
-4 0 -14 9 -23 16 -17 14 -49 -6 -88 -5 -9 -6 -22 -3 -27 3 -5 1 -11 -5 -15
-6 -4 -8 -11 -4 -16 3 -6 3 -18 -1 -27 -12 -31 -25 10 -16 50 7 28 5 38 -5 42
-10 4 -11 12 -5 30 6 13 7 33 5 43 -6 22 22 57 37 48 14 -9 11 19 -3 34 -11
11 -7 13 21 7 19 -3 36 -8 37 -9z m3504 -12 c0 -8 -4 -15 -10 -15 -5 0 -10 7
-10 15 0 8 5 15 10 15 6 0 10 -7 10 -15z m-3590 -5 c0 -5 -5 -10 -11 -10 -5 0
-7 5 -4 10 3 6 8 10 11 10 2 0 4 -4 4 -10z m3550 -10 c0 -5 -5 -10 -11 -10 -5
0 -7 5 -4 10 3 6 8 10 11 10 2 0 4 -4 4 -10z m-672 -14 c-2 -1 -11 -7 -20 -15
-15 -11 -17 -10 -15 7 1 13 7 18 19 14 11 -2 17 -5 16 -6z m1142 10 c0 -3 -4
-8 -10 -11 -5 -3 -10 -1 -10 4 0 6 5 11 10 11 6 0 10 -2 10 -4z m-1739 -23
c50 4 79 2 79 -4 0 -6 -4 -8 -8 -5 -5 3 -6 -9 -4 -26 4 -28 6 -29 17 -15 14
20 27 22 23 5 -3 -13 3 -18 23 -18 5 0 7 5 3 11 -4 8 0 8 15 0 16 -9 21 -9 21
0 0 6 9 9 20 6 11 -3 20 -1 20 4 0 5 5 9 10 9 6 0 10 -14 10 -30 0 -28 2 -30
20 -20 11 6 20 17 20 25 0 8 5 15 11 15 5 0 8 -4 5 -9 -4 -5 9 -5 30 -1 20 5
43 6 52 3 11 -5 13 -3 7 7 -6 10 0 12 23 8 26 -4 29 -2 20 9 -8 10 -7 12 5 7
8 -3 25 -1 36 6 15 8 21 8 21 0 0 -6 5 -8 11 -5 6 4 13 -2 16 -14 3 -12 10
-21 15 -21 6 0 8 7 4 15 -3 8 -1 15 3 15 5 0 11 -5 13 -12 3 -7 11 -4 24 9 19
20 69 39 58 22 -7 -13 53 -11 78 2 11 6 18 7 15 2 -6 -10 30 -46 48 -49 6 0
14 -2 19 -2 5 -1 1 -11 -9 -22 -10 -11 -13 -20 -7 -20 6 0 12 -10 14 -22 3
-25 -19 -58 -39 -58 -16 0 -24 -14 -28 -51 -4 -26 -2 -29 10 -19 11 9 17 7 27
-9 7 -12 19 -21 26 -21 7 0 10 -4 7 -10 -3 -5 1 -10 10 -10 28 0 6 -19 -35
-31 -22 -7 -40 -16 -40 -22 0 -5 -7 -7 -15 -3 -13 5 -13 2 1 -19 9 -14 23 -25
31 -25 11 0 14 -7 10 -21 -4 -14 -2 -19 8 -15 17 6 24 -23 26 -104 1 -40 4
-55 8 -40 4 19 13 25 33 25 14 0 30 -3 34 -7 4 -5 2 -8 -5 -8 -7 0 -10 -4 -7
-9 4 -5 2 -20 -2 -33 -9 -23 8 -85 20 -73 3 3 5 -14 5 -37 0 -24 2 -50 4 -58
5 -18 -3 -17 -55 5 l-38 16 25 -45 c18 -33 22 -47 13 -56 -8 -8 -18 -2 -38 22
-24 29 -27 30 -25 11 0 -12 4 -20 8 -17 4 2 10 -3 13 -12 4 -10 2 -13 -6 -8
-8 5 -9 2 -3 -12 5 -10 9 -30 9 -44 1 -14 5 -31 9 -37 5 -9 3 -13 -7 -13 -9 0
-16 5 -16 10 0 6 -8 10 -17 10 -9 0 -27 10 -40 22 -13 12 -23 16 -23 9 0 -7
-5 -9 -12 -4 -7 4 -5 -5 5 -20 9 -15 15 -27 11 -27 -4 0 -1 -7 6 -15 7 -8 15
-13 19 -11 4 3 7 -4 7 -15 0 -10 -1 -19 -1 -19 0 0 -22 20 -49 45 -27 25 -53
45 -58 45 -4 0 -8 6 -8 13 0 8 -6 14 -14 14 -11 0 -13 -8 -9 -30 l6 -30 -46 6
c-26 4 -59 10 -73 13 -18 5 -25 3 -21 -3 4 -6 -4 -18 -17 -27 -22 -14 -25 -14
-30 0 -4 12 -2 15 9 10 8 -3 15 -1 15 5 0 5 -8 12 -17 15 -10 3 -26 10 -36 15
-24 13 -32 6 -12 -11 17 -14 21 -50 5 -50 -5 0 -7 -13 -3 -31 5 -25 3 -31 -8
-27 -8 3 -13 13 -13 22 2 23 -13 20 -19 -4 -3 -11 -1 -18 3 -15 4 3 6 -5 3
-17 -5 -18 -10 -13 -33 32 -25 49 -28 52 -35 31 -4 -12 -4 -25 -1 -28 3 -4 6
2 6 12 0 10 2 16 5 13 4 -3 3 -18 -1 -34 -7 -27 -7 -27 -15 -6 -10 28 -29 29
-29 1 0 -11 5 -17 10 -14 6 3 10 1 10 -4 0 -6 -7 -11 -15 -11 -9 0 -15 -9 -15
-24 0 -14 -4 -28 -10 -31 -5 -3 -10 3 -10 14 0 11 -5 32 -12 46 -10 22 -9 27
7 39 18 13 17 14 -13 10 -34 -4 -43 11 -20 34 9 9 9 12 0 12 -7 0 -20 -9 -29
-20 -12 -14 -19 -16 -24 -8 -5 7 -11 9 -16 5 -4 -4 -2 -17 5 -27 19 -31 14
-38 -8 -11 -11 13 -20 32 -20 43 0 10 -4 17 -10 13 -5 -3 -6 -13 -3 -22 5 -12
2 -12 -15 3 -12 10 -22 25 -21 34 0 10 2 11 6 3 2 -7 9 -13 14 -13 4 0 5 7 2
17 -4 9 -2 14 3 10 6 -3 10 9 10 29 0 21 -5 34 -13 34 -7 0 -12 -3 -12 -7 5
-28 -3 -53 -16 -53 -18 0 -20 21 -3 38 7 7 9 12 5 12 -4 0 -18 -18 -32 -40
-14 -22 -31 -40 -39 -40 -8 0 -26 -7 -42 -14 -36 -19 -45 -13 -33 26 11 39 66
98 92 98 10 0 15 5 12 10 -3 6 2 10 12 11 14 0 15 2 3 7 -24 11 -17 35 17 60
18 12 34 22 37 22 4 0 14 8 24 18 29 27 62 52 68 52 10 0 34 28 34 40 0 6 4 9
9 5 5 -3 16 2 25 10 8 8 34 24 58 34 24 10 52 29 63 42 18 21 17 21 -15 -3
-19 -15 -48 -30 -64 -34 -29 -7 -29 -7 -10 13 42 44 58 69 60 93 2 13 8 26 13
28 5 2 7 10 4 19 -6 16 15 35 29 27 4 -3 8 -15 9 -27 0 -15 2 -17 6 -7 3 8 10
18 15 21 13 9 19 181 5 172 -6 -3 -7 -1 -3 5 9 15 36 16 37 2 1 -5 2 -16 3
-22 0 -7 15 -14 31 -15 27 -2 28 -2 8 7 -34 14 -46 44 -24 64 10 9 21 13 24 9
4 -3 7 1 7 11 0 9 8 20 18 23 9 4 23 13 30 20 16 15 32 17 33 3 1 -5 2 -14 3
-19 3 -26 16 -20 16 7 0 21 -7 35 -21 42 -22 12 -54 6 -45 -9 10 -16 -42 -33
-60 -19 -16 12 -27 -21 -14 -37 8 -10 4 -18 -16 -34 -32 -25 -38 -26 -54 -6
-7 8 -17 15 -23 15 -6 0 -3 -6 6 -12 9 -7 19 -25 23 -40 5 -24 3 -28 -14 -28
-24 0 -38 16 -20 23 7 3 -2 6 -19 8 -18 1 -38 2 -45 3 -6 1 -13 -5 -16 -13 -3
-8 0 -11 6 -7 5 3 21 2 34 -3 25 -10 21 -12 -29 -17 -25 -2 -30 1 -26 13 5 13
2 13 -26 -1 -17 -9 -31 -12 -31 -7 0 12 -32 2 -42 -13 -4 -6 -12 -5 -22 3 -14
12 -16 10 -16 -8 0 -11 -5 -21 -11 -21 -6 0 -9 7 -5 15 4 13 2 14 -14 5 -16
-8 -26 -7 -42 4 -14 10 -26 12 -33 6 -7 -6 -21 -4 -39 5 -16 8 -35 15 -42 15
-8 0 -14 3 -14 8 0 4 -11 8 -25 8 -13 1 -24 -1 -23 -5 0 -3 -1 -17 -2 -31 -2
-18 -4 -20 -7 -7 -5 19 -33 24 -33 5 -1 -9 -5 -8 -13 3 -8 10 -20 13 -37 8
-14 -4 -19 -7 -12 -8 7 -1 10 -5 7 -11 -10 -17 -25 -11 -25 9 0 11 -5 23 -12
27 -20 12 -58 13 -58 1 0 -7 -5 -19 -10 -27 -9 -13 -11 -13 -21 0 -9 12 -12
13 -16 1 -4 -11 -7 -11 -13 0 -7 10 -11 10 -24 -1 -14 -11 -16 -10 -10 5 6 13
4 16 -5 10 -8 -4 -17 -2 -21 6 -7 10 -11 10 -25 -1 -8 -7 -14 -18 -12 -24 4
-11 -16 -36 -28 -36 -11 0 7 44 27 67 30 33 18 51 -15 21 -15 -14 -24 -28 -20
-31 3 -4 1 -7 -5 -7 -7 0 -11 -3 -11 -7 5 -30 -4 -43 -38 -52 -50 -14 -56 -14
-49 4 9 25 -2 17 -18 -12 -11 -20 -15 -23 -16 -11 0 16 -4 15 -37 -4 -37 -22
-38 -14 -5 25 9 9 10 17 4 17 -6 0 -24 -17 -41 -37 -29 -35 -31 -36 -31 -14 0
22 -11 25 -12 4 0 -9 -59 -93 -65 -93 -2 0 0 12 3 26 4 17 2 29 -7 35 -11 7
-9 9 7 9 12 0 25 7 28 16 4 9 2 13 -5 8 -24 -15 -79 -22 -80 -10 0 6 -5 -4
-10 -23 -6 -18 -7 -36 -4 -39 3 -3 8 4 12 16 3 12 9 22 13 22 11 0 23 -57 15
-70 -3 -5 -1 -10 4 -10 6 0 11 -9 11 -20 0 -25 -20 -27 -21 -2 0 13 -2 12 -9
-5 -5 -13 -15 -20 -23 -17 -8 3 -14 -2 -14 -11 0 -17 11 -19 37 -5 23 12 50 3
50 -18 0 -9 -10 -27 -22 -40 -17 -19 -19 -24 -6 -19 14 5 16 -1 15 -36 -2 -32
2 -41 12 -39 12 3 12 0 1 -13 -7 -8 -9 -19 -5 -23 4 -4 14 3 22 14 14 21 53
23 53 3 0 -11 23 -7 32 6 4 6 8 2 8 -9 0 -15 3 -16 15 -6 24 20 31 2 13 -31
-17 -28 -17 -29 2 -19 10 6 25 19 32 29 8 10 25 21 38 22 21 3 26 -1 28 -24 2
-17 -4 -37 -15 -50 -17 -19 -17 -20 0 -14 9 4 17 5 17 3 0 -3 3 -11 6 -19 3
-9 -6 -26 -23 -41 -27 -25 -27 -26 -5 -26 12 0 22 4 22 8 0 16 44 30 56 18 12
-12 -2 -56 -18 -56 -4 0 -8 -9 -8 -20 0 -12 -7 -20 -17 -20 -15 0 -15 -2 -4
-9 21 -14 -5 -44 -31 -35 -10 3 -30 -1 -43 -10 -18 -12 -25 -12 -28 -3 -3 6
-6 0 -6 -15 -1 -16 -5 -28 -11 -28 -5 0 -10 -10 -10 -22 -1 -21 -61 -98 -76
-98 -4 0 -4 9 -1 20 3 11 1 23 -4 26 -5 3 -9 -2 -9 -10 0 -8 -5 -18 -12 -22
-7 -5 -9 0 -6 14 6 20 5 21 -19 4 -15 -9 -21 -18 -14 -20 15 -5 -17 -31 -39
-32 -8 0 -22 -14 -30 -31 -19 -39 -36 -38 -32 3 2 25 0 29 -11 20 -7 -6 -23
-9 -35 -5 -13 3 -22 1 -22 -6 0 -5 7 -8 15 -5 21 9 20 -30 -2 -47 -11 -10 -14
-10 -9 -1 4 6 3 12 -1 12 -5 0 -14 -9 -21 -20 -7 -12 -17 -18 -21 -15 -5 3
-12 -1 -15 -7 -3 -7 -3 -2 0 11 4 16 3 21 -5 17 -19 -12 -12 4 12 27 23 23 33
47 18 47 -5 0 -14 -7 -21 -16 -8 -8 -21 -19 -31 -25 -16 -8 -17 -7 -4 17 7 15
26 35 42 45 15 10 23 19 16 19 -6 0 -15 -4 -18 -10 -11 -18 -26 -10 -20 10 7
21 -9 28 -20 10 -4 -6 -11 -8 -16 -4 -6 3 -4 16 6 31 16 24 16 24 -5 13 -11
-6 -18 -15 -15 -20 3 -5 -6 -21 -20 -37 -20 -23 -24 -25 -25 -10 0 10 -4 15
-10 12 -5 -3 -10 2 -10 13 0 28 -11 34 -27 14 -11 -13 -16 -14 -20 -4 -4 10
-8 10 -19 1 -12 -10 -13 -9 -8 6 6 14 4 16 -6 10 -10 -6 -12 1 -7 35 4 29 2
39 -4 29 -5 -8 -9 -9 -9 -2 0 6 -9 14 -19 18 -20 6 -37 48 -21 53 6 2 8 8 4
13 -3 5 0 9 5 9 6 0 11 7 11 15 0 8 6 24 13 35 15 25 -3 40 -37 33 -12 -3 -17
-1 -10 4 6 4 7 19 4 33 l-7 25 -8 -30 c-5 -16 -14 -39 -22 -51 -7 -11 -11 -23
-7 -26 3 -3 1 -9 -5 -13 -15 -9 -14 3 9 64 13 37 16 59 10 71 -5 10 -6 20 -2
24 3 4 -2 4 -13 0 -11 -5 -14 -9 -7 -12 7 -2 12 -9 12 -16 0 -15 -38 -61 -45
-54 -3 2 4 14 15 26 21 22 25 33 13 31 -23 -4 -24 3 -5 24 11 12 21 27 22 32
1 23 12 45 22 45 6 0 6 6 -2 15 -10 12 -9 16 5 21 12 5 13 9 4 14 -9 6 -4 20
18 51 16 24 32 52 36 61 3 10 18 20 32 24 14 3 25 10 25 15 0 17 -27 9 -50
-16 -12 -13 -27 -22 -32 -19 -5 3 -8 2 -7 -3 4 -16 -13 -43 -24 -36 -5 3 -16
-2 -24 -13 -13 -18 -13 -18 -10 3 2 12 11 31 22 43 10 11 13 20 7 20 -6 0 -5
11 5 30 8 17 19 28 24 24 5 -3 16 2 25 11 9 9 23 14 30 11 17 -7 18 6 2 22
-17 17 -25 15 -31 -10 -7 -25 -20 -18 -22 12 -1 17 4 19 44 15 l46 -5 -38 16
c-37 16 -47 42 -13 36 9 -2 16 1 15 5 -1 4 3 21 9 36 7 16 9 33 6 39 -16 26
-13 68 5 80 11 6 17 18 14 25 -4 9 4 13 23 12 26 0 27 -1 9 -10 -17 -8 -17 -9
5 -4 14 2 31 5 38 5 7 0 10 5 7 11 -4 5 -4 20 -1 32 5 20 11 22 48 19 24 -2
50 -6 58 -9 8 -4 47 -7 87 -8 61 -2 75 1 95 19 12 12 30 25 38 30 8 4 31 15
50 25 22 12 37 15 41 9 4 -6 12 -7 18 -4 6 4 11 2 11 -5 0 -8 3 -9 13 0 8 6
17 8 20 4 4 -3 7 -1 7 6 0 7 10 10 24 7 14 -2 30 2 36 9 8 9 19 11 33 6 12 -5
33 -4 47 0 14 5 41 8 60 6 19 -2 40 0 47 5 7 6 20 5 32 -1 14 -8 22 -8 26 0 4
6 14 8 22 5 8 -3 24 -1 36 5 16 9 22 9 25 0 2 -6 9 -8 14 -4 15 8 60 14 126
15 28 1 52 5 52 9 0 4 14 3 31 -3 18 -6 63 -8 110 -5z m669 13 c0 -2 -7 -7
-16 -10 -8 -3 -12 -2 -9 4 6 10 25 14 25 6z m-123 -12 c-3 -3 -12 -4 -19 -1
-8 3 -5 6 6 6 11 1 17 -2 13 -5z m1263 -24 c-7 -4 -9 -13 -6 -19 4 -6 3 -11
-1 -11 -5 0 -10 -15 -11 -32 -4 -49 -12 -68 -29 -68 -10 0 -13 6 -8 18 5 14 4
15 -6 5 -22 -22 -27 -15 -24 31 5 71 12 84 48 88 38 4 54 -1 37 -12z m-3890
-30 c0 -5 -5 -10 -11 -10 -5 0 -7 5 -4 10 3 6 8 10 11 10 2 0 4 -4 4 -10z
m3997 -37 c-3 -10 -5 -4 -5 12 0 17 2 24 5 18 2 -7 2 -21 0 -30z m-4110 -11
c2 -9 7 -36 10 -59 3 -24 9 -40 13 -38 6 4 18 -21 18 -41 1 -3 10 -14 21 -23
12 -10 21 -23 21 -29 0 -5 8 -8 18 -5 13 3 19 15 20 39 1 19 -2 33 -6 30 -5
-3 -6 9 -4 25 4 27 27 37 27 12 0 -6 3 -15 8 -19 13 -14 7 -67 -10 -87 -10
-11 -13 -17 -6 -13 8 4 17 -11 28 -51 9 -32 20 -68 26 -81 10 -25 -3 -62 -23
-62 -5 0 -8 -9 -5 -20 6 -22 -7 -27 -19 -8 -12 19 -15 146 -4 153 5 3 10 14 9
23 0 12 -2 13 -6 3 -4 -11 -7 -11 -14 0 -5 8 -10 -6 -15 -39 -3 -29 -10 -52
-13 -52 -11 0 -12 -58 -1 -65 5 -3 10 -12 10 -18 0 -7 -5 -4 -11 7 -9 15 -13
16 -20 5 -6 -10 -9 -4 -9 19 0 17 -5 32 -11 32 -5 0 -7 -4 -4 -10 3 -5 2 -16
-2 -23 -6 -9 -14 -6 -33 12 -14 13 -19 20 -11 16 10 -6 12 -4 5 6 -18 29 -13
41 11 35 19 -5 23 -3 19 9 -3 8 -11 12 -18 9 -6 -3 -2 2 9 11 20 16 20 16 1
31 -19 14 -19 14 2 14 12 0 23 -4 23 -10 1 -5 3 -14 4 -20 1 -5 3 -15 4 -22 1
-8 4 -9 11 -2 7 7 7 21 -1 42 -12 36 -14 37 -51 18 -23 -12 -27 -12 -32 1 -9
23 4 36 22 21 14 -10 15 -10 5 1 -7 8 -9 26 -6 41 3 15 0 31 -6 34 -7 4 -11
-1 -11 -13 0 -11 -4 -22 -9 -26 -14 -8 -35 98 -26 131 5 16 9 35 11 42 9 45
24 52 31 14z m113 24 c0 -3 -4 -8 -10 -11 -5 -3 -10 -1 -10 4 0 6 5 11 10 11
6 0 10 -2 10 -4z m3200 -20 c0 -8 -7 -16 -15 -20 -9 -3 -15 0 -15 8 0 8 -6 17
-12 19 -7 3 -1 6 15 6 17 1 27 -4 27 -13z m726 3 c3 -6 1 -15 -5 -20 -6 -5 -9
-6 -6 -3 3 4 0 13 -6 21 -8 9 -8 13 -1 13 6 0 14 -5 18 -11z m-3873 -53 c4
-27 5 -51 2 -54 -10 -11 -25 22 -25 56 0 20 -4 31 -10 27 -5 -3 -10 1 -10 10
0 10 7 15 17 13 12 -2 20 -18 26 -52z m-62 25 c7 10 8 8 6 -8 -3 -24 -17 -44
-17 -25 0 5 -2 16 -3 24 -2 7 -2 9 1 4 2 -4 8 -2 13 5z m-48 -61 c-7 -28 -13
-25 -13 6 0 14 4 23 9 20 5 -3 7 -15 4 -26z m4007 2 c0 -15 -2 -15 -10 -2 -13
20 -13 33 0 25 6 -3 10 -14 10 -23z m-1430 14 c0 -11 -19 -15 -25 -6 -3 5 1
10 9 10 9 0 16 -2 16 -4z m340 -30 c0 -11 -19 -15 -25 -6 -3 5 1 10 9 10 9 0
16 -2 16 -4z m860 -30 c0 -3 -4 -8 -10 -11 -5 -3 -10 -1 -10 4 0 6 5 11 10 11
6 0 10 -2 10 -4z m-3518 -34 c-7 -2 -12 -14 -12 -27 0 -13 -4 -26 -9 -29 -5
-3 -8 10 -8 28 1 19 5 32 9 30 4 -3 8 0 8 6 0 6 5 8 12 4 9 -6 9 -9 0 -12z
m-119 -27 c17 -17 11 -55 -9 -55 -17 0 -31 23 -17 27 6 2 9 13 6 23 -6 24 0
25 20 5z m680 -9 c6 -15 -1 -26 -15 -26 -4 0 -8 9 -8 20 0 23 15 27 23 6z
m1255 -19 c2 -11 -2 -14 -17 -10 -12 3 -17 11 -14 19 7 18 27 13 31 -9z m376
8 c3 -8 1 -15 -4 -15 -6 0 -10 7 -10 15 0 8 2 15 4 15 2 0 6 -7 10 -15z
m-1791 -9 c4 -10 1 -13 -8 -9 -8 3 -12 9 -9 14 7 12 11 11 17 -5z m1747 -3 c0
-10 -4 -14 -8 -8 -4 6 -11 13 -16 18 -5 4 -2 7 7 7 10 0 17 -8 17 -17z m-730
-3 c0 -5 -7 -10 -16 -10 -8 0 -12 5 -9 10 3 6 10 10 16 10 5 0 9 -4 9 -10z
m785 -20 c-3 -5 -11 -10 -16 -10 -6 0 -7 5 -4 10 3 6 11 10 16 10 6 0 7 -4 4
-10z m445 -10 c0 -5 -7 -7 -15 -4 -8 4 -15 8 -15 10 0 2 7 4 15 4 8 0 15 -4
15 -10z m-2771 -27 c0 -25 -1 -26 -9 -8 -12 27 -12 35 0 35 6 0 10 -12 9 -27z
m89 -8 c1 -13 -4 -27 -10 -31 -8 -5 -9 -2 -5 10 4 10 2 26 -3 36 -8 15 -7 18
3 15 7 -3 14 -16 15 -30z m2262 21 c0 -3 -4 -8 -10 -11 -5 -3 -10 -1 -10 4 0
6 5 11 10 11 6 0 10 -2 10 -4z m-88 -52 c-11 -9 -20 -9 -27 -3 -7 7 -4 15 9
25 15 11 22 11 27 2 4 -7 0 -17 -9 -24z m-1019 -19 c-3 -9 -8 -14 -10 -11 -3
3 -2 9 2 15 9 16 15 13 8 -4z m1031 -20 c-4 -8 -8 -15 -10 -15 -2 0 -4 7 -4
15 0 8 4 15 10 15 5 0 7 -7 4 -15z m-1107 -25 c2 -21 -11 -27 -22 -10 -7 11 2
30 13 30 4 0 8 -9 9 -20z m1653 0 c0 -5 -2 -10 -4 -10 -3 0 -8 5 -11 10 -3 6
-1 10 4 10 6 0 11 -4 11 -10z m-610 -14 c0 -8 -4 -17 -9 -21 -6 -3 -9 4 -8 15
1 23 17 28 17 6z m30 5 c0 -18 -12 -41 -22 -41 -6 0 -5 6 2 15 6 8 9 19 5 25
-3 5 -1 10 4 10 6 0 11 -4 11 -9z m575 -20 c3 -5 1 -12 -4 -15 -5 -3 -11 1
-15 9 -6 16 9 21 19 6z m-2480 -21 c3 -5 1 -10 -4 -10 -6 0 -11 5 -11 10 0 6
2 10 4 10 3 0 8 -4 11 -10z m-415 -22 c0 6 5 12 11 12 6 0 9 -12 7 -27 -3 -25
-23 -37 -23 -14 0 5 -3 13 -7 17 -5 4 -8 12 -8 18 0 6 5 4 10 -4 6 -10 10 -11
10 -2z m80 2 c0 -6 -9 -18 -19 -27 -11 -9 -17 -21 -14 -27 3 -6 2 -7 -2 -3
-15 13 -14 37 1 37 8 0 17 7 20 15 7 17 14 20 14 5z m95 -9 c3 -5 1 -12 -5
-16 -5 -3 -10 1 -10 9 0 18 6 21 15 7z m-58 -26 c-15 -16 -19 -13 -11 9 3 9
10 13 15 10 5 -3 3 -11 -4 -19z m-31 -32 c2 -9 5 -28 9 -41 4 -15 2 -21 -5
-17 -5 3 -10 15 -10 26 0 37 -17 19 -26 -28 -8 -43 -10 -45 -15 -21 -4 15 0
37 7 50 8 13 17 31 20 41 7 20 17 15 20 -10z m84 8 c0 -29 -15 -33 -18 -5 -1
13 3 24 8 24 6 0 10 -9 10 -19z m1095 9 c-3 -5 -10 -10 -16 -10 -5 0 -9 5 -9
10 0 6 7 10 16 10 8 0 12 -4 9 -10z m-815 -4 c0 -2 -7 -7 -16 -10 -8 -3 -12
-2 -9 4 6 10 25 14 25 6z m-338 -28 c-7 -7 -12 -8 -12 -2 0 6 3 14 7 17 3 4 9
5 12 2 2 -3 -1 -11 -7 -17z m1141 -2 c4 -10 0 -14 -13 -13 -14 1 -16 4 -8 14
13 16 15 16 21 -1z m-1082 -39 c-10 -9 -11 -8 -5 6 3 10 9 15 12 12 3 -3 0
-11 -7 -18z m1069 3 c0 -5 -8 -10 -17 -10 -15 0 -16 2 -3 10 19 12 20 12 20 0z
m-1080 -35 c0 -5 -5 -3 -10 5 -5 8 -10 20 -10 25 0 6 5 3 10 -5 5 -8 10 -19
10 -25z m4317 -27 c-3 -8 -6 -5 -6 6 -1 11 2 17 5 13 3 -3 4 -12 1 -19z
m-2977 -8 c0 -5 -4 -10 -10 -10 -5 0 -10 5 -10 10 0 6 5 10 10 10 6 0 10 -4
10 -10z m-1343 -34 c-2 -28 -4 -32 -16 -23 -12 10 -14 9 -9 -4 3 -9 2 -22 -3
-30 -6 -10 -9 -5 -9 16 0 26 23 75 35 75 2 0 3 -15 2 -34z m1326 -6 c-5 -19
-23 -39 -23 -25 0 9 20 45 24 45 2 0 2 -9 -1 -20z m2973 -27 c-10 -26 -29 1
-21 28 7 20 8 21 17 5 5 -9 7 -24 4 -33z m-2946 8 c-14 -27 -13 -30 12 -23 14
3 19 2 14 -6 -10 -17 -31 -15 -47 4 -11 14 -10 18 6 30 25 19 28 18 15 -5z
m500 -5 c0 -2 -8 -10 -17 -17 -16 -13 -17 -12 -4 4 13 16 21 21 21 13z m-1480
-95 c0 -33 0 -34 -17 -14 -10 11 -23 18 -29 16 -6 -2 -14 8 -16 22 -4 17 -1
25 8 25 8 0 14 -4 14 -10 0 -5 5 -10 10 -10 6 0 10 8 10 18 0 14 2 15 10 2 5
-8 10 -30 10 -49z m1050 22 c0 -5 -14 -16 -30 -25 -17 -9 -30 -13 -30 -8 0 5
12 16 28 24 32 18 32 18 32 9z m-1112 -39 c18 -8 32 -19 32 -24 0 -4 10 -5 23
-2 21 5 21 5 5 -12 -10 -9 -22 -15 -27 -11 -5 3 -13 0 -17 -6 -4 -8 -3 -9 4
-5 7 4 12 3 12 -3 0 -5 -6 -11 -12 -13 -7 -3 -13 -11 -14 -19 -3 -42 -5 -49
-13 -49 -6 0 -9 9 -8 20 1 11 5 20 10 20 4 0 5 5 2 10 -3 6 -11 10 -16 10 -6
0 -7 -4 -4 -10 3 -5 -4 -10 -16 -10 -17 0 -19 3 -10 13 6 8 8 16 5 20 -3 3 4
10 15 17 27 14 27 26 -1 35 -21 6 -21 8 -4 12 15 4 16 7 5 14 -23 14 -4 10 29
-7z m3940 -40 c-6 -32 -25 -26 -20 6 3 21 8 28 14 22 6 -6 8 -18 6 -28z
m-1712 -16 l17 -33 -22 19 c-11 11 -21 25 -21 33 0 21 8 15 26 -19z m-138 -25
l2 -37 -20 22 c-23 24 -25 38 -7 45 21 9 22 8 25 -30z m-1058 13 c0 -8 -7 -21
-15 -29 -8 -8 -11 -17 -8 -21 4 -3 2 -6 -4 -6 -5 0 -10 -7 -11 -15 -1 -8 -3
-22 -4 -30 -1 -9 -11 -15 -27 -15 -25 1 -25 1 -7 15 19 15 19 15 -1 15 -30 0
-38 18 -17 36 11 9 12 12 4 8 -12 -5 -12 -4 -4 5 9 10 17 10 34 1 19 -10 22
-8 33 19 12 32 27 41 27 17z m68 9 c-2 -1 -13 -8 -25 -14 -19 -9 -23 -9 -23 2
0 9 10 15 25 15 14 0 25 -2 23 -3z m1052 -11 c0 -14 -3 -14 -15 -4 -8 7 -15
14 -15 16 0 2 7 4 15 4 8 0 15 -7 15 -16z m30 6 c0 -5 -2 -10 -4 -10 -3 0 -8
5 -11 10 -3 6 -1 10 4 10 6 0 11 -4 11 -10z m-1080 -25 c0 -8 -5 -15 -10 -15
-6 0 -20 -9 -32 -20 -26 -24 -38 -25 -38 -4 0 9 5 14 12 12 7 -3 23 6 36 19
27 27 32 28 32 8z m440 6 c0 -5 -8 -19 -18 -32 l-19 -22 -5 21 c-4 15 0 25 10
32 21 12 32 12 32 1z m-417 -26 c-7 -21 -13 -19 -13 6 0 11 4 18 10 14 5 -3 7
-12 3 -20z m907 9 c0 -8 -4 -12 -10 -9 -5 3 -10 10 -10 16 0 5 5 9 10 9 6 0
10 -7 10 -16z m-1977 -9 c-3 -9 -8 -14 -10 -11 -3 3 -2 9 2 15 9 16 15 13 8
-4z m2010 -10 c3 -16 0 -24 -7 -22 -14 4 -21 47 -8 47 5 0 12 -11 15 -25z
m152 15 c3 -5 1 -10 -4 -10 -6 0 -11 5 -11 10 0 6 2 10 4 10 3 0 8 -4 11 -10z
m-2245 -18 c0 -4 -8 -19 -17 -32 -10 -14 -17 -26 -15 -27 9 -11 -1 -33 -15
-32 -13 0 -14 2 -4 6 11 5 11 7 0 14 -11 8 -11 12 4 23 10 8 20 23 22 33 2 10
4 19 4 21 2 6 21 1 21 -6z m1183 -12 c-3 -11 -7 -20 -9 -20 -2 0 -4 9 -4 20 0
11 4 20 9 20 5 0 7 -9 4 -20z m-1010 -38 c7 -34 -1 -46 -19 -31 -8 6 -14 27
-14 46 0 29 2 33 14 24 8 -6 16 -24 19 -39z m971 13 c-5 -13 -19 -20 -26 -13
-2 2 -18 -7 -35 -20 -30 -21 -33 -22 -33 -5 0 23 9 34 40 55 29 18 63 7 54
-17z m247 8 c-8 -15 -10 -15 -11 -2 0 17 10 32 18 25 2 -3 -1 -13 -7 -23z
m406 5 c-3 -8 -6 -5 -6 6 -1 11 2 17 5 13 3 -3 4 -12 1 -19z m-862 -18 c3 -5
-1 -10 -10 -10 -9 0 -13 5 -10 10 3 6 8 10 10 10 2 0 7 -4 10 -10z m595 -20
c0 -5 -5 -10 -11 -10 -5 0 -7 5 -4 10 3 6 8 10 11 10 2 0 4 -4 4 -10z m-593
-34 c-3 -7 -15 -16 -26 -19 -21 -5 -21 -5 1 26 20 28 37 24 25 -7z m203 27 c0
-4 -12 -17 -26 -28 -14 -11 -27 -32 -27 -46 -2 -20 -6 -24 -24 -21 -15 3 -23
-2 -28 -17 -3 -12 -11 -21 -16 -21 -14 0 4 30 33 56 12 12 34 35 48 52 24 30
40 40 40 25z m56 -32 c-2 -14 -5 -30 -5 -35 -1 -5 -7 -4 -14 2 -7 6 -22 10
-33 8 -10 -2 -14 -1 -7 1 7 2 18 17 24 33 16 35 41 29 35 -9z m-1066 -26 c0
-14 -4 -25 -10 -25 -11 0 -14 33 -3 43 11 11 13 8 13 -18z m877 -7 c-3 -8 -6
-5 -6 6 -1 11 2 17 5 13 3 -3 4 -12 1 -19z m1648 4 c-3 -3 -11 0 -18 7 -9 10
-8 11 6 5 10 -3 15 -9 12 -12z m-1878 -44 c-16 -10 -21 -2 -13 19 6 15 9 15
16 3 6 -9 5 -17 -3 -22z m1901 1 c-3 -8 -7 -3 -11 10 -4 17 -3 21 5 13 5 -5 8
-16 6 -23z m-1678 11 c0 -5 -5 -10 -11 -10 -5 0 -7 5 -4 10 3 6 8 10 11 10 2
0 4 -4 4 -10z m-560 -4 c0 -3 -4 -8 -10 -11 -5 -3 -10 -1 -10 4 0 6 5 11 10
11 6 0 10 -2 10 -4z m310 -11 c0 -8 -4 -15 -10 -15 -5 0 -7 7 -4 15 4 8 8 15
10 15 2 0 4 -7 4 -15z m-3 -50 c-19 -19 -27 -19 -27 -1 0 8 8 16 18 18 24 6
27 1 9 -17z m286 -6 c-10 -17 -24 -36 -32 -42 -12 -10 -12 -9 0 13 16 29 40
60 46 60 2 0 -4 -14 -14 -31z m-341 -41 c-7 -7 -12 -8 -12 -2 0 14 12 26 19
19 2 -3 -1 -11 -7 -17z m8 -45 c0 -5 -8 -17 -17 -28 -14 -18 -15 -18 -9 -2 3
10 6 23 6 28 0 5 5 9 10 9 6 0 10 -3 10 -7z m26 -48 c-3 -9 -11 -13 -16 -10
-8 5 -7 11 1 21 14 18 24 11 15 -11z m783 -73 c3 -1 -1 -8 -9 -15 -9 -8 -11
-8 -6 0 3 6 -2 18 -12 25 -10 7 -22 20 -27 28 -4 8 5 4 21 -10 16 -14 31 -26
33 -28z m608 -18 c-3 -3 -12 -4 -19 -1 -8 3 -5 6 6 6 11 1 17 -2 13 -5z m1757
-49 c-4 -8 -8 -15 -10 -15 -2 0 -4 7 -4 15 0 8 4 15 10 15 5 0 7 -7 4 -15z
m-14 -83 c0 -5 -6 -17 -14 -28 -19 -25 -31 -12 -14 15 13 21 28 28 28 13z
m-3208 -34 c-7 -7 -12 -8 -12 -2 0 14 12 26 19 19 2 -3 -1 -11 -7 -17z m3168
-62 c0 -2 -7 -7 -16 -10 -8 -3 -12 -2 -9 4 6 10 25 14 25 6z m-3180 -184 c0
-20 -4 -31 -10 -27 -5 3 -10 25 -10 48 0 31 3 38 10 27 5 -8 10 -30 10 -48z
m3117 -4 c-3 -8 -6 -5 -6 6 -1 11 2 17 5 13 3 -3 4 -12 1 -19z m-3176 -31
c-13 -12 -20 -15 -16 -7 14 26 28 41 33 35 3 -3 -5 -16 -17 -28z m935 -52
c-36 -47 -43 -45 -8 4 15 21 29 37 31 35 2 -2 -8 -19 -23 -39z m2125 -58 c-6
-6 -11 -21 -11 -34 0 -13 -4 -23 -9 -23 -10 0 -27 -39 -23 -52 1 -5 -2 -8 -7
-8 -5 0 -13 -9 -16 -20 -11 -34 -23 -13 -23 41 0 45 2 50 20 46 13 -4 19 -1
17 11 -3 33 1 52 12 52 5 0 7 -4 4 -10 -3 -5 0 -7 9 -4 8 3 18 13 21 22 6 13
9 14 12 4 3 -8 0 -19 -6 -25z m-111 -41 c0 -3 -4 -8 -10 -11 -5 -3 -10 -1 -10
4 0 6 5 11 10 11 6 0 10 -2 10 -4z m-197 -134 c-3 -12 -10 -22 -15 -22 -5 0
-7 3 -5 8 2 4 7 16 11 26 9 25 17 16 9 -12z m54 12 c-3 -3 -12 -4 -19 -1 -8 3
-5 6 6 6 11 1 17 -2 13 -5z m55 -196 c-7 -7 -12 -8 -12 -2 0 14 12 26 19 19 2
-3 -1 -11 -7 -17z m58 -13 c0 -14 -4 -25 -10 -25 -11 0 -14 33 -3 43 11 11 13
8 13 -18z m-40 -45 c0 -5 -4 -10 -10 -10 -5 0 -10 5 -10 10 0 6 5 10 10 10 6
0 10 -4 10 -10z m-176 -54 c-9 -24 -22 -47 -29 -50 -11 -4 -12 0 -5 19 6 14
14 36 20 50 17 44 29 27 14 -19z m63 29 c-18 -13 -18 -14 3 -17 18 -3 19 -5 8
-19 -7 -10 -24 -20 -38 -24 -23 -7 -23 -7 -7 9 20 20 22 36 5 36 -6 0 -3 7 8
15 10 8 24 14 29 14 6 0 2 -6 -8 -14z m-2641 -14 c12 10 13 9 8 -5 -4 -10 -13
-15 -21 -12 -8 3 -20 6 -26 6 -7 0 -6 4 3 10 10 6 16 6 18 -1 3 -6 9 -5 18 2z
m94 -33 c0 -4 -6 -8 -14 -8 -7 0 -26 -12 -41 -26 -15 -14 -34 -23 -41 -20 -23
9 -16 21 19 31 17 6 33 16 33 23 1 6 2 19 3 29 1 15 3 14 21 -2 11 -10 20 -22
20 -27z m2424 4 c-4 -9 -7 -24 -6 -32 1 -10 0 -11 -4 -2 -3 6 -14 12 -25 12
-10 0 -19 7 -19 15 0 8 5 15 11 15 5 0 7 -6 4 -12 -4 -7 4 -1 17 13 24 26 36
22 22 -9z m133 -37 c0 -8 -9 -17 -19 -21 -10 -3 -18 -10 -18 -15 0 -6 6 -7 13
-4 6 4 5 1 -4 -7 -9 -7 -16 -17 -15 -23 1 -14 -44 -19 -56 -7 -17 17 26 82 49
75 6 -2 14 1 18 6 9 16 32 13 32 -4z m-167 -4 c0 -5 -9 -12 -19 -16 -12 -4
-18 -12 -14 -21 3 -7 0 -14 -6 -14 -12 0 -13 6 -5 38 6 21 44 33 44 13z
m-2415 -11 c3 -5 1 -10 -4 -10 -6 0 -11 5 -11 10 0 6 2 10 4 10 3 0 8 -4 11
-10z m2438 -20 c-3 -11 -7 -20 -9 -20 -2 0 -4 9 -4 20 0 11 4 20 9 20 5 0 7
-9 4 -20z m52 -85 c0 -17 -8 -33 -21 -41 -19 -13 -20 -12 -19 19 1 19 5 39 9
46 13 20 31 6 31 -24z m-295 -55 c0 -4 -7 -11 -16 -14 -13 -5 -14 -4 -6 7 7 8
8 18 4 22 -4 5 -1 5 6 1 6 -4 12 -11 12 -16z m-1970 -50 c0 -5 -8 -10 -17 -10
-15 0 -16 2 -3 10 19 12 20 12 20 0z m1780 0 c0 -5 -2 -10 -4 -10 -3 0 -8 5
-11 10 -3 6 -1 10 4 10 6 0 11 -4 11 -10z m-1906 -19 c3 -5 -1 -12 -10 -15
-24 -9 -36 -7 -28 6 5 8 0 9 -14 6 -12 -4 -22 -2 -22 3 0 12 67 12 74 0z m156
-16 c0 -2 -9 -9 -19 -15 -21 -11 -54 -3 -45 11 5 9 64 13 64 4z m50 -5 c0 -5
-4 -10 -10 -10 -5 0 -10 5 -10 10 0 6 5 10 10 10 6 0 10 -4 10 -10z m86 -11
c-15 -9 -16 -13 -5 -21 11 -8 10 -8 -4 -4 -10 3 -25 6 -33 6 -8 0 -14 4 -14 9
0 10 23 18 55 20 19 0 19 0 1 -10z m-116 -9 c0 -5 -7 -10 -16 -10 -8 0 -12 5
-9 10 3 6 10 10 16 10 5 0 9 -4 9 -10z m200 6 c0 -3 -4 -8 -10 -11 -5 -3 -10
-1 -10 4 0 6 5 11 10 11 6 0 10 -2 10 -4z m-270 -62 c0 -8 -4 -12 -10 -9 -5 3
-10 10 -10 16 0 5 5 9 10 9 6 0 10 -7 10 -16z m-115 -25 c11 -16 -11 -16 -29
2 -18 17 -18 18 3 12 12 -3 24 -9 26 -14z m1275 -57 c0 -9 -42 -37 -52 -34 -5
1 -8 -2 -8 -7 0 -5 -12 -8 -27 -8 l-26 0 24 19 c39 31 89 48 89 30z m491 -35
c-10 -9 -11 -8 -5 6 3 10 9 15 12 12 3 -3 0 -11 -7 -18z m-136 -17 c3 -5 1
-10 -4 -10 -6 0 -11 5 -11 10 0 6 2 10 4 10 3 0 8 -4 11 -10z m305 0 c0 -5 -2
-10 -4 -10 -3 0 -8 5 -11 10 -3 6 -1 10 4 10 6 0 11 -4 11 -10z m-360 -45 c-7
-8 -20 -15 -29 -15 -11 0 -8 5 9 14 33 19 35 19 20 1z m80 5 c-8 -5 -19 -10
-25 -10 -5 0 -3 5 5 10 8 5 20 10 25 10 6 0 3 -5 -5 -10z m-1300 -20 c0 -5 -2
-10 -4 -10 -3 0 -8 5 -11 10 -3 6 -1 10 4 10 6 0 11 -4 11 -10z m700 6 c0 -3
-4 -8 -10 -11 -5 -3 -10 -1 -10 4 0 6 5 11 10 11 6 0 10 -2 10 -4z m-647 -22
c-3 -8 -12 -13 -20 -10 -8 3 -17 6 -19 6 -3 0 -2 5 1 10 11 17 45 12 38 -6z
m1131 -9 c-7 -17 -30 -20 -38 -6 -4 5 0 12 6 14 25 10 37 7 32 -8z m-1074 1
c0 -9 -30 -14 -35 -6 -4 6 3 10 14 10 12 0 21 -2 21 -4z m960 -26 c0 -5 -5
-10 -11 -10 -5 0 -7 5 -4 10 3 6 8 10 11 10 2 0 4 -4 4 -10z m-400 -8 c0 -14
-36 -43 -43 -35 -4 3 -7 1 -7 -6 0 -7 -6 -11 -14 -8 -7 3 -18 1 -24 -5 -13
-13 -32 -2 -32 18 0 8 10 14 23 14 13 0 27 4 33 9 8 8 31 16 57 20 4 0 7 -3 7
-7z m275 -11 c3 -5 2 -12 -3 -15 -5 -3 -9 1 -9 9 0 17 3 19 12 6z m-405 -31
c0 -5 -9 -10 -21 -10 -11 0 -17 -5 -14 -10 4 -6 11 -7 17 -4 6 4 9 1 6 -7 -2
-7 -18 -19 -35 -26 -25 -10 -34 -10 -48 1 -22 16 -12 36 19 36 13 0 29 7 36
15 14 17 40 20 40 5z m-125 -10 c-3 -5 -12 -10 -18 -10 -7 0 -6 4 3 10 19 12
23 12 15 0z m-16 -59 c9 -6 -1 -10 -33 -12 -45 -4 -63 5 -28 14 29 8 46 7 61
-2z"/>
<path d="M4830 8660 c0 -12 35 -31 43 -24 3 3 3 12 0 20 -6 16 -43 19 -43 4z"/>
<path d="M6170 8550 c0 -5 7 -10 16 -10 8 0 12 5 9 10 -3 6 -10 10 -16 10 -5
0 -9 -4 -9 -10z"/>
<path d="M6260 8430 c0 -5 5 -10 10 -10 6 0 10 5 10 10 0 6 -4 10 -10 10 -5 0
-10 -4 -10 -10z"/>
<path d="M6338 8413 c7 -3 16 -2 19 1 4 3 -2 6 -13 5 -11 0 -14 -3 -6 -6z"/>
<path d="M6725 8020 c-3 -5 1 -10 10 -10 9 0 13 5 10 10 -3 6 -8 10 -10 10 -2
0 -7 -4 -10 -10z"/>
<path d="M6848 7793 c7 -3 16 -2 19 1 4 3 -2 6 -13 5 -11 0 -14 -3 -6 -6z"/>
<path d="M6900 7762 c-24 -11 -21 -29 5 -29 14 0 25 3 25 8 0 5 8 9 18 10 14
0 14 2 -3 9 -24 10 -26 10 -45 2z"/>
<path d="M6828 7743 c7 -3 16 -2 19 1 4 3 -2 6 -13 5 -11 0 -14 -3 -6 -6z"/>
<path d="M6800 7699 c0 -11 47 -12 53 -1 3 4 -8 7 -24 8 -16 1 -29 -3 -29 -7z"/>
<path d="M7030 7700 c0 -5 5 -10 10 -10 6 0 10 5 10 10 0 6 -4 10 -10 10 -5 0
-10 -4 -10 -10z"/>
<path d="M6758 7678 c6 -6 18 -8 28 -6 14 3 12 5 -9 10 -19 3 -25 2 -19 -4z"/>
<path d="M6942 7668 c3 -7 20 -18 39 -25 30 -11 31 -12 9 -13 -23 -1 -23 -2 8
-15 18 -8 31 -19 27 -25 -10 -16 21 -12 35 5 8 9 8 15 2 15 -6 0 -12 12 -14
28 -3 24 -7 27 -35 25 -17 -2 -35 2 -38 7 -9 14 -37 12 -33 -2z"/>
<path d="M6900 7660 c0 -5 5 -10 11 -10 5 0 7 5 4 10 -3 6 -8 10 -11 10 -2 0
-4 -4 -4 -10z"/>
<path d="M6903 7592 c-13 -2 -23 -8 -23 -14 0 -7 17 -8 49 -4 43 6 49 4 54
-14 4 -14 13 -20 34 -20 27 1 27 1 8 15 -11 8 -27 20 -35 27 -14 13 -44 16
-87 10z"/>
<path d="M7087 7593 c-3 -4 1 -14 9 -20 7 -7 15 -9 18 -4 3 5 -1 14 -8 20 -8
7 -16 8 -19 4z"/>
<path d="M6770 7549 c0 -5 5 -7 10 -4 6 3 10 8 10 11 0 2 -4 4 -10 4 -5 0 -10
-5 -10 -11z"/>
<path d="M6907 7553 c-17 -16 0 -22 43 -14 6 2 -23 21 -31 21 -3 0 -9 -3 -12
-7z"/>
<path d="M7033 7523 c9 -2 23 -2 30 0 6 3 -1 5 -18 5 -16 0 -22 -2 -12 -5z"/>
<path d="M6820 7500 c0 -5 7 -10 15 -10 8 0 15 -4 15 -10 0 -5 5 -10 12 -10 6
0 3 9 -7 20 -20 22 -35 26 -35 10z"/>
<path d="M5405 7461 c-5 -9 24 -31 39 -31 13 0 5 28 -10 34 -20 8 -22 8 -29
-3z"/>
<path d="M6900 7450 c15 -12 18 -18 8 -14 -13 4 -18 1 -18 -10 0 -13 7 -16 32
-13 41 4 48 35 10 43 -15 3 -34 8 -42 10 -8 2 -4 -5 10 -16z"/>
<path d="M6740 7420 c-14 -4 -19 -8 -12 -9 6 -1 11 -7 10 -13 -2 -7 4 -11 12
-9 8 2 30 6 49 9 l34 5 -33 13 c-18 8 -33 14 -34 13 0 -1 -12 -5 -26 -9z"/>
<path d="M6980 7415 c-14 -8 -19 -14 -10 -14 8 0 24 6 34 14 25 19 9 19 -24 0z"/>
<path d="M6635 7400 c3 -5 10 -10 16 -10 5 0 9 5 9 10 0 6 -7 10 -16 10 -8 0
-12 -4 -9 -10z"/>
<path d="M7012 7394 c-11 -12 -7 -14 22 -14 19 0 37 4 40 9 9 15 45 1 65 -25
20 -25 56 -33 49 -11 -3 6 -9 12 -14 12 -5 0 -19 9 -32 20 -28 24 -110 30
-130 9z"/>
<path d="M6910 7392 c0 -15 25 -21 41 -11 9 5 9 9 2 9 -6 0 -18 3 -27 6 -9 3
-16 2 -16 -4z"/>
<path d="M6825 7380 c3 -5 15 -10 26 -10 10 0 19 -6 19 -13 0 -7 10 -13 21
-14 26 -2 39 -14 21 -20 -6 -3 -10 -9 -7 -13 8 -13 -42 -5 -59 9 -8 7 -17 8
-20 3 -10 -17 22 -33 68 -35 49 -2 51 -4 35 -27 -8 -11 -12 -12 -16 -2 -2 6
-9 10 -14 6 -12 -7 11 -29 39 -38 16 -5 24 -3 28 9 4 9 13 14 20 11 27 -11 13
14 -21 37 -29 20 -33 26 -20 31 23 8 27 8 21 -3 -4 -5 5 -4 18 2 33 16 21 30
-20 24 -23 -4 -33 -2 -31 6 1 7 -8 12 -21 12 -13 0 -26 5 -30 11 -9 14 -66 29
-57 14z"/>
<path d="M6970 7360 c0 -5 4 -10 9 -10 6 0 13 5 16 10 3 6 -1 10 -9 10 -9 0
-16 -4 -16 -10z"/>
<path d="M7015 7348 c9 -28 25 -47 25 -30 0 7 10 17 23 22 21 8 21 9 -5 9 -16
1 -28 6 -28 11 0 6 -5 10 -11 10 -6 0 -8 -9 -4 -22z"/>
<path d="M6725 7340 c3 -5 8 -10 11 -10 2 0 4 5 4 10 0 6 -5 10 -11 10 -5 0
-7 -4 -4 -10z"/>
<path d="M6733 7301 c0 -11 5 -18 9 -15 4 3 5 11 1 19 -7 21 -12 19 -10 -4z"/>
<path d="M7088 7313 c7 -3 16 -2 19 1 4 3 -2 6 -13 5 -11 0 -14 -3 -6 -6z"/>
<path d="M6760 7279 c0 -5 5 -7 10 -4 6 3 10 8 10 11 0 2 -4 4 -10 4 -5 0 -10
-5 -10 -11z"/>
<path d="M7000 7281 c0 -5 9 -7 20 -4 11 3 20 7 20 9 0 2 -9 4 -20 4 -11 0
-20 -4 -20 -9z"/>
<path d="M7090 7280 c-13 -9 -13 -11 0 -20 8 -5 22 -10 30 -10 10 0 11 3 4 8
-6 4 -13 12 -15 19 -3 9 -9 9 -19 3z"/>
<path d="M6779 7254 c0 -5 -2 -18 -4 -29 -3 -19 -3 -19 9 -3 7 10 15 16 17 14
2 -2 23 -6 46 -9 33 -4 40 -2 36 9 -3 8 -17 14 -32 13 -14 0 -36 2 -48 6 -13
4 -23 3 -24 -1z"/>
<path d="M6620 7139 c0 -5 5 -7 10 -4 6 3 10 8 10 11 0 2 -4 4 -10 4 -5 0 -10
-5 -10 -11z"/>
<path d="M7000 7110 c0 -5 5 -10 11 -10 5 0 7 5 4 10 -3 6 -8 10 -11 10 -2 0
-4 -4 -4 -10z"/>
<path d="M7157 7069 c7 -7 15 -10 18 -7 3 3 -2 9 -12 12 -14 6 -15 5 -6 -5z"/>
<path d="M6778 7018 c2 -15 8 -28 13 -28 6 0 5 -9 -1 -20 -11 -20 3 -30 15
-10 3 5 12 7 20 3 18 -6 20 18 3 35 -9 9 -9 12 0 12 24 0 11 15 -21 25 -32 11
-33 10 -29 -17z"/>
<path d="M7190 7030 c0 -5 5 -10 10 -10 6 0 10 5 10 10 0 6 -4 10 -10 10 -5 0
-10 -4 -10 -10z"/>
<path d="M6679 6963 c-13 -16 -12 -17 4 -4 16 13 21 21 13 21 -2 0 -10 -8 -17
-17z"/>
<path d="M7149 6963 c-13 -15 -12 -15 9 -4 23 12 28 21 13 21 -5 0 -15 -7 -22
-17z"/>
<path d="M6650 6930 c0 -5 5 -10 10 -10 6 0 10 5 10 10 0 6 -4 10 -10 10 -5 0
-10 -4 -10 -10z"/>
<path d="M6780 6929 c0 -5 5 -7 10 -4 6 3 10 8 10 11 0 2 -4 4 -10 4 -5 0 -10
-5 -10 -11z"/>
<path d="M6696 6903 c-4 -8 -1 -22 5 -29 6 -8 9 -21 5 -29 -7 -18 1 -19 18 -2
17 17 27 47 16 47 -5 0 -15 7 -23 15 -13 13 -16 13 -21 -2z"/>
<path d="M6590 6896 c0 -2 7 -7 16 -10 8 -3 12 -2 9 4 -6 10 -25 14 -25 6z"/>
<path d="M6650 6892 c0 -5 7 -9 15 -9 8 0 15 4 15 9 0 4 -7 8 -15 8 -8 0 -15
-4 -15 -8z"/>
<path d="M6556 6841 c-4 -7 -5 -15 -2 -18 9 -9 19 4 14 18 -4 11 -6 11 -12 0z"/>
<path d="M6790 6814 c0 -14 3 -14 15 -4 8 7 15 14 15 16 0 2 -7 4 -15 4 -8 0
-15 -7 -15 -16z"/>
<path d="M6602 6806 c4 -5 3 -15 -4 -23 -8 -11 -7 -12 5 -8 8 4 18 2 22 -4 3
-6 -1 -11 -9 -11 -25 0 -19 -14 13 -33 35 -20 76 -23 65 -4 -6 8 -3 8 9 -1 9
-8 22 -12 29 -9 8 3 5 6 -7 7 -17 2 -16 3 5 10 l25 8 -26 1 c-34 1 -67 25 -49
36 7 4 15 3 19 -2 11 -17 48 -22 48 -7 0 8 -10 14 -22 14 -12 0 -30 7 -41 15
-25 19 -38 19 -30 0 3 -9 0 -15 -10 -15 -9 0 -12 5 -8 13 4 6 4 9 -1 5 -4 -4
-15 -2 -24 4 -9 7 -13 8 -9 4z"/>
<path d="M7118 6763 c6 -2 18 -2 25 0 6 3 1 5 -13 5 -14 0 -19 -2 -12 -5z"/>
<path d="M6683 6684 c0 -8 5 -14 11 -14 6 -1 0 -8 -14 -16 -14 -8 -17 -13 -8
-10 19 6 31 -23 24 -59 -6 -35 16 -34 53 0 19 19 38 30 41 25 3 -4 13 -2 23 5
16 11 14 13 -18 12 -22 -1 -35 -6 -35 -15 0 -7 -5 -10 -11 -7 -7 5 -5 13 5 24
15 16 15 19 -1 32 -10 9 -30 20 -44 26 -21 9 -26 8 -26 -3z m52 -24 c3 -5 2
-10 -4 -10 -5 0 -13 5 -16 10 -3 6 -2 10 4 10 5 0 13 -4 16 -10z"/>
<path d="M6792 6687 c-14 -16 -6 -27 19 -27 9 0 20 -6 22 -12 3 -7 6 -8 6 -3
0 6 -8 20 -17 33 -15 20 -20 21 -30 9z"/>
<path d="M7228 6683 c7 -3 16 -2 19 1 4 3 -2 6 -13 5 -11 0 -14 -3 -6 -6z"/>
<path d="M4978 6663 c7 -3 16 -2 19 1 4 3 -2 6 -13 5 -11 0 -14 -3 -6 -6z"/>
<path d="M7236 6663 c-11 -3 -26 -12 -35 -20 -13 -14 -13 -15 8 -8 17 5 21 4
16 -5 -5 -8 -2 -8 12 1 11 6 20 18 20 25 0 8 -1 13 -1 13 -1 -1 -10 -4 -20 -6z"/>
<path d="M5328 6643 c7 -3 16 -2 19 1 4 3 -2 6 -13 5 -11 0 -14 -3 -6 -6z"/>
<path d="M5518 6643 c7 -3 16 -2 19 1 4 3 -2 6 -13 5 -11 0 -14 -3 -6 -6z"/>
<path d="M6800 6592 c-8 -3 -21 -12 -29 -20 -13 -13 -12 -14 9 -7 27 8 46 22
39 28 -2 3 -11 2 -19 -1z"/>
<path d="M7220 6590 c-13 -8 -12 -10 3 -10 9 0 17 5 17 10 0 12 -1 12 -20 0z"/>
<path d="M6755 6540 c6 -10 -7 -14 -32 -11 -7 1 -13 -3 -13 -8 0 -15 18 -23
25 -11 10 16 22 12 22 -7 0 -35 3 -43 17 -43 22 0 28 31 9 45 -16 12 -14 14
17 24 28 9 29 10 7 7 -15 -2 -30 1 -33 5 -3 5 -10 9 -15 9 -6 0 -7 -4 -4 -10z"/>
<path d="M7095 6520 c3 -5 8 -10 11 -10 2 0 4 5 4 10 0 6 -5 10 -11 10 -5 0
-7 -4 -4 -10z"/>
<path d="M7125 6511 c3 -5 -1 -11 -7 -14 -7 -2 -10 -7 -7 -11 8 -8 39 3 39 14
0 4 -7 11 -16 14 -8 3 -13 2 -9 -3z"/>
<path d="M3720 6481 c0 -5 5 -13 10 -16 6 -3 10 -2 10 4 0 5 -4 13 -10 16 -5
3 -10 2 -10 -4z"/>
<path d="M7020 6465 c0 -8 2 -15 4 -15 2 0 6 7 10 15 3 8 1 15 -4 15 -6 0 -10
-7 -10 -15z"/>
<path d="M7288 6463 c7 -3 16 -2 19 1 4 3 -2 6 -13 5 -11 0 -14 -3 -6 -6z"/>
<path d="M3809 6439 c0 -8 -2 -22 -4 -31 -2 -10 3 -18 11 -18 8 0 14 -4 14
-10 0 -5 5 -10 11 -10 8 0 8 4 0 14 -7 8 -14 24 -16 36 -5 27 -15 39 -16 19z"/>
<path d="M6781 6441 c-7 -5 -9 -11 -4 -14 6 -4 19 0 29 8 15 11 16 14 4 15 -8
0 -21 -4 -29 -9z"/>
<path d="M7100 6446 c0 -2 9 -6 20 -9 11 -3 18 -1 14 4 -5 9 -34 13 -34 5z"/>
<path d="M7245 6440 c-3 -5 -1 -10 4 -10 6 0 11 5 11 10 0 6 -2 10 -4 10 -3 0
-8 -4 -11 -10z"/>
<path d="M6737 6420 c-3 -11 -1 -20 4 -20 5 0 9 -4 9 -10 0 -5 -13 -8 -29 -6
-20 2 -28 -1 -25 -9 3 -6 21 -11 42 -10 20 1 52 -2 70 -6 41 -9 41 -4 -3 17
-19 9 -35 21 -35 26 0 5 -6 16 -14 23 -12 12 -15 11 -19 -5z"/>
<path d="M6805 6420 c-4 -6 -3 -16 3 -22 6 -6 12 -6 17 2 4 6 3 16 -3 22 -6 6
-12 6 -17 -2z"/>
<path d="M7182 6413 c-28 -4 -33 -8 -29 -25 5 -17 2 -19 -20 -13 -23 5 -25 4
-14 -9 10 -12 18 -13 32 -5 11 5 17 14 14 20 -4 5 0 10 7 10 7 1 22 3 33 4 11
1 29 3 40 4 l20 2 -20 9 c-11 5 -22 8 -25 8 -3 -1 -20 -3 -38 -5z"/>
<path d="M6998 6363 c-8 -10 -1 -13 37 -13 40 0 46 -2 36 -14 -9 -10 -9 -16
-1 -21 15 -9 42 14 33 29 -4 6 -8 16 -8 21 0 15 -84 13 -97 -2z"/>
<path d="M7225 6370 c3 -5 11 -10 16 -10 6 0 7 5 4 10 -3 6 -11 10 -16 10 -6
0 -7 -4 -4 -10z"/>
<path d="M3850 6350 c0 -6 7 -10 15 -10 8 0 15 2 15 4 0 2 -7 6 -15 10 -8 3
-15 1 -15 -4z"/>
<path d="M6754 6338 c-4 -6 -3 -8 3 -5 6 4 26 0 44 -8 19 -8 28 -14 20 -15 -8
0 -12 -2 -10 -5 3 -2 15 -1 28 2 21 5 17 8 -25 24 -58 22 -51 22 -60 7z"/>
<path d="M6980 6324 c0 -12 6 -15 23 -10 12 3 26 6 30 6 5 0 5 5 2 10 -10 17
-55 12 -55 -6z"/>
<path d="M7120 6310 c0 -6 7 -10 15 -10 8 0 15 2 15 4 0 2 -7 6 -15 10 -8 3
-15 1 -15 -4z"/>
<path d="M7062 6294 c10 -10 20 -15 24 -12 3 4 -5 12 -18 18 -22 12 -22 12 -6
-6z"/>
<path d="M7006 6269 c2 -18 9 -38 15 -46 10 -11 8 -12 -6 -7 -12 5 -16 4 -12
-3 4 -7 -5 -14 -23 -18 -38 -8 -40 -35 -2 -35 32 0 122 -31 122 -42 0 -4 5 -8
10 -8 6 0 10 7 10 15 0 7 7 18 16 23 15 8 15 10 -1 15 -9 4 -24 3 -33 -2 -22
-12 -86 14 -76 30 4 8 8 8 13 0 9 -13 45 -19 48 -7 1 5 7 12 14 17 8 4 10 11
6 15 -4 4 -13 2 -19 -4 -7 -7 -16 -12 -21 -12 -5 0 -1 7 8 16 15 15 15 18 -1
36 -10 10 -24 16 -31 14 -9 -4 -13 0 -11 11 2 10 -4 19 -13 21 -13 2 -16 -4
-13 -29z"/>
<path d="M7216 6291 c-8 -12 12 -63 27 -73 18 -11 47 -10 47 3 0 5 -4 8 -9 5
-5 -3 -11 12 -15 34 -5 31 -11 40 -26 40 -10 0 -21 -4 -24 -9z"/>
<path d="M6870 6276 c0 -2 6 -9 13 -15 10 -8 14 -7 14 4 0 8 -6 15 -14 15 -7
0 -13 -2 -13 -4z"/>
<path d="M6944 6231 c4 -5 0 -11 -6 -14 -7 -2 -1 -4 15 -4 15 0 30 4 34 10 3
6 1 7 -5 3 -7 -4 -12 -2 -12 3 0 6 -7 11 -16 11 -8 0 -13 -4 -10 -9z"/>
<path d="M6890 6210 c0 -6 7 -10 15 -10 8 0 15 2 15 4 0 2 -7 6 -15 10 -8 3
-15 1 -15 -4z"/>
<path d="M6830 6190 c27 -21 45 -26 35 -10 -3 6 -1 10 5 10 6 0 8 5 5 10 -3 6
-21 10 -38 10 l-32 0 25 -20z"/>
<path d="M7138 6193 c7 -3 16 -2 19 1 4 3 -2 6 -13 5 -11 0 -14 -3 -6 -6z"/>
<path d="M7265 6190 c-3 -5 1 -10 9 -10 9 0 16 5 16 10 0 6 -4 10 -9 10 -6 0
-13 -4 -16 -10z"/>
<path d="M6965 6142 c12 -12 87 -34 93 -27 5 5 -35 22 -76 31 -18 5 -24 3 -17
-4z"/>
<path d="M7165 6120 c4 -6 11 -8 16 -5 14 9 11 15 -7 15 -8 0 -12 -5 -9 -10z"/>
<path d="M6300 6193 c0 -10 49 -33 69 -33 20 0 11 7 -32 25 -20 8 -37 12 -37
8z"/>
<path d="M6426 6094 c-4 -9 -5 -18 -4 -19 2 -1 12 -7 23 -13 14 -8 16 -12 5
-12 -13 0 -13 -1 0 -10 13 -8 12 -10 -3 -10 -10 0 -16 -4 -13 -9 4 -5 0 -12
-6 -14 -8 -3 -6 -6 4 -6 11 -1 15 -6 12 -16 -4 -8 -1 -22 6 -30 10 -12 9 -16
-6 -22 -27 -10 -55 -46 -41 -55 5 -3 16 -4 24 -1 8 3 23 -3 35 -13 12 -11 18
-13 14 -6 -4 6 -2 12 3 12 6 0 11 -7 11 -16 0 -10 -7 -14 -22 -12 -12 2 -23
-3 -26 -11 -3 -10 0 -12 12 -8 10 4 32 7 49 7 24 0 28 3 17 10 -13 8 -13 10 2
10 36 0 48 -11 41 -39 -6 -23 -5 -25 11 -12 9 8 14 16 11 19 -3 3 0 10 5 17 7
9 -1 15 -31 24 -31 9 -39 15 -30 24 20 20 12 26 -16 11 -33 -17 -57 -18 -47
-3 4 8 -1 9 -16 4 -16 -5 -21 -4 -18 6 6 15 39 13 49 -3 4 -6 9 -6 14 2 4 7 1
16 -6 21 -8 5 -9 9 -3 9 5 0 15 -5 21 -11 8 -8 17 -8 33 1 12 6 24 9 28 6 3
-3 0 -6 -6 -6 -7 0 -12 -5 -12 -11 0 -6 7 -9 15 -5 8 3 15 0 15 -5 0 -6 9 -9
20 -6 10 3 18 0 17 -5 -1 -6 6 -12 15 -13 11 -2 15 3 13 16 -2 10 1 19 6 19 6
0 8 4 4 9 -3 5 -1 12 5 16 6 4 8 11 4 16 -3 5 -10 7 -15 4 -5 -4 -9 -1 -9 4 0
6 8 11 18 12 13 0 14 2 2 6 -8 3 -21 12 -27 21 -7 9 -31 17 -55 18 -38 2 -39
1 -13 -6 l30 -8 -32 -1 c-23 -1 -33 4 -33 14 0 8 -15 22 -32 30 -22 10 -25 14
-10 11 12 -2 20 0 16 5 -3 5 -12 9 -21 9 -9 0 -24 9 -33 20 -16 18 -18 19 -24
4z m66 -111 c-6 -2 -9 -10 -6 -15 4 -7 2 -8 -5 -4 -13 9 -5 26 12 25 9 0 8 -2
-1 -6z m78 -3 c-8 -5 -19 -10 -25 -10 -5 0 -3 5 5 10 8 5 20 10 25 10 6 0 3
-5 -5 -10z m40 -36 c0 -2 -9 0 -20 6 -11 6 -20 13 -20 16 0 2 9 0 20 -6 11 -6
20 -13 20 -16z m-67 -1 c-7 -2 -19 -2 -25 0 -7 3 -2 5 12 5 14 0 19 -2 13 -5z"/>
<path d="M6374 6091 c4 -5 1 -11 -6 -13 -8 -3 -6 -7 5 -11 12 -5 17 -1 17 13
0 11 -5 20 -11 20 -5 0 -8 -4 -5 -9z"/>
<path d="M6490 6085 c14 -8 30 -14 35 -14 6 0 -1 6 -15 14 -14 8 -29 14 -35
14 -5 0 1 -6 15 -14z"/>
<path d="M6380 6046 l-25 -14 28 1 c15 1 27 8 27 15 0 15 1 15 -30 -2z"/>
<path d="M6545 6051 c-21 -5 -25 -8 -14 -13 21 -8 70 2 63 13 -3 5 -8 8 -12 8
-4 -1 -20 -4 -37 -8z"/>
<path d="M6395 6010 c-3 -5 -1 -10 4 -10 6 0 11 5 11 10 0 6 -2 10 -4 10 -3 0
-8 -4 -11 -10z"/>
<path d="M6570 5874 c0 -16 9 -18 28 -5 10 6 9 10 -7 14 -14 3 -21 0 -21 -9z"/>
<path d="M6375 5860 c-3 -5 1 -10 10 -10 9 0 13 5 10 10 -3 6 -8 10 -10 10 -2
0 -7 -4 -10 -10z"/>
<path d="M6616 5845 c4 -8 7 -15 9 -15 2 0 5 7 9 15 3 9 0 15 -9 15 -9 0 -12
-6 -9 -15z"/>
<path d="M6416 5763 c1 -16 3 -30 4 -33 1 -3 1 -9 0 -15 -9 -41 -9 -55 -3 -56
5 0 24 -2 43 -5 l35 -4 -32 16 c-18 9 -33 21 -33 26 0 6 7 5 15 -2 9 -7 19
-10 22 -6 4 4 1 11 -7 16 -13 8 -12 10 3 10 20 0 23 16 5 24 -7 3 0 4 16 1
l28 -6 -28 29 c-16 16 -32 25 -35 20 -4 -7 -9 -6 -13 1 -12 20 -22 12 -20 -16z"/>
<path d="M6559 5774 c-15 -8 -18 -14 -9 -14 8 -1 29 -3 45 -5 17 -1 24 -1 17
2 -6 3 -10 8 -7 13 9 15 -21 18 -46 4z"/>
<path d="M6592 5731 c-11 -7 -10 -10 3 -15 23 -9 25 -8 25 9 0 17 -9 19 -28 6z"/>
<path d="M6550 5641 c0 -6 4 -12 8 -15 5 -3 9 1 9 9 0 8 -4 15 -9 15 -4 0 -8
-4 -8 -9z"/>
<path d="M6620 5533 c0 -5 5 -15 10 -23 9 -13 11 -13 19 0 5 8 7 18 5 22 -6
10 -34 11 -34 1z"/>
<path d="M7074 5494 c-19 -15 -19 -15 1 -6 11 5 27 12 35 15 13 5 13 6 -1 6
-8 1 -24 -6 -35 -15z"/>
<path d="M7215 5414 c-13 -10 -15 -14 -4 -14 20 0 43 16 32 23 -4 3 -17 -1
-28 -9z"/>
<path d="M7140 5406 c-19 -6 -35 -18 -35 -26 0 -8 -4 -18 -8 -21 -9 -6 -16
-53 -23 -159 l-6 -75 48 -70 c26 -38 48 -72 50 -73 6 -8 44 10 38 19 -3 5 8
12 25 15 17 4 31 10 31 15 0 9 43 -3 92 -26 20 -10 35 -22 32 -27 -3 -4 4 -8
14 -8 20 0 36 -25 27 -40 -3 -5 -1 -11 4 -14 4 -3 5 -24 1 -46 -4 -22 -4 -43
1 -46 4 -2 6 -11 2 -19 -3 -9 1 -23 8 -32 11 -13 11 -17 1 -20 -6 -3 -10 -9
-6 -14 3 -5 0 -9 -7 -9 -7 0 -9 -3 -6 -7 4 -4 -4 -19 -19 -34 l-25 -26 26 0
c26 0 51 28 37 42 -4 4 0 6 8 5 8 -1 20 -2 27 -1 14 1 5 41 -11 41 -6 0 -3 5
7 11 9 5 17 18 17 27 0 9 12 27 27 39 14 13 23 26 19 30 -4 4 4 13 16 20 13 7
17 12 10 13 -9 0 -10 5 -4 18 5 9 9 41 10 70 0 29 6 59 13 69 8 9 13 18 12 20
-9 11 0 22 25 29 20 5 23 8 10 11 -10 3 -18 8 -18 13 0 5 -10 12 -21 15 -17 6
-19 9 -8 16 12 7 11 9 -1 9 -12 1 -12 3 3 14 15 12 16 14 2 20 -8 3 -15 13
-15 22 0 10 -5 14 -16 10 -8 -3 -12 -2 -9 4 5 8 -12 22 -40 32 -5 1 -9 7 -7
13 2 6 -2 4 -9 -2 -7 -7 -24 -13 -38 -13 -19 0 -22 3 -12 9 8 5 -7 11 -45 16
-68 8 -121 30 -137 57 -7 10 -19 18 -27 19 -10 0 -11 2 -2 6 6 2 10 9 6 14
-10 16 -24 10 -24 -11 0 -11 -4 -20 -9 -20 -5 0 -16 -3 -24 -6 -8 -3 -17 2
-21 11 -5 13 -1 15 17 10 19 -5 20 -5 4 5 -14 9 -16 15 -6 26 17 21 9 23 -31
10z m7 -22 c-3 -3 -12 -4 -19 -1 -8 3 -5 6 6 6 11 1 17 -2 13 -5z"/>
<path d="M6335 4850 c3 -5 14 -10 23 -10 15 0 15 2 2 10 -20 13 -33 13 -25 0z"/>
<path d="M6487 4695 c30 -26 40 -40 36 -55 -4 -15 -2 -19 10 -15 8 4 22 -2 32
-11 17 -17 17 -17 11 6 l-7 25 20 -22 c10 -13 26 -23 34 -23 7 0 22 -9 32 -20
10 -11 28 -19 39 -19 19 1 19 2 2 6 -10 3 -37 23 -59 44 -23 21 -45 39 -49 39
-4 0 -34 18 -65 40 -71 49 -91 52 -36 5z"/>
<path d="M5322 4695 c-7 -9 -8 -15 -2 -15 5 0 13 0 17 0 4 0 8 6 9 15 3 19 -7
19 -24 0z"/>
<path d="M6556 4697 c3 -10 9 -15 12 -12 3 3 0 11 -7 18 -10 9 -11 8 -5 -6z"/>
<path d="M5307 4664 c7 -3 9 -12 6 -21 -5 -13 -3 -13 16 -2 19 13 19 14 3 21
-9 3 -21 7 -27 7 -5 -1 -5 -3 2 -5z"/>
<path d="M6078 4608 c5 -5 16 -8 23 -6 8 3 3 7 -10 11 -17 4 -21 3 -13 -5z"/>
<path d="M6676 4595 c4 -8 11 -15 16 -15 6 0 5 6 -2 15 -7 8 -14 15 -16 15 -2
0 -1 -7 2 -15z"/>
<path d="M6580 4580 c0 -5 4 -10 9 -10 5 0 12 -11 15 -25 4 -16 13 -25 26 -25
28 0 33 17 13 45 -23 31 -37 33 -23 3 l11 -23 -20 23 c-21 24 -31 28 -31 12z"/>
<path d="M5995 4550 c3 -5 8 -10 11 -10 2 0 4 5 4 10 0 6 -5 10 -11 10 -5 0
-7 -4 -4 -10z"/>
<path d="M6070 4550 c-9 -6 -10 -10 -3 -10 6 0 15 5 18 10 8 12 4 12 -15 0z"/>
<path d="M6138 4553 c6 -2 18 -2 25 0 6 3 1 5 -13 5 -14 0 -19 -2 -12 -5z"/>
<path d="M6005 4520 c3 -5 8 -10 11 -10 2 0 4 5 4 10 0 6 -5 10 -11 10 -5 0
-7 -4 -4 -10z"/>
<path d="M6138 4523 c6 -2 18 -2 25 0 6 3 1 5 -13 5 -14 0 -19 -2 -12 -5z"/>
<path d="M5520 4495 c-10 -12 -10 -15 3 -15 19 0 31 16 18 24 -5 3 -14 -1 -21
-9z"/>
<path d="M5982 4483 c-1 -16 4 -23 16 -23 14 0 14 2 3 9 -11 7 -10 10 7 13 22
3 22 3 -1 14 -20 9 -23 7 -25 -13z"/>
<path d="M6185 4500 c4 -6 11 -8 16 -5 14 9 11 15 -7 15 -8 0 -12 -5 -9 -10z"/>
<path d="M6530 4489 c7 -11 14 -18 17 -15 8 8 -5 36 -17 36 -7 0 -7 -6 0 -21z"/>
<path d="M5565 4490 c-3 -5 1 -10 10 -10 9 0 13 5 10 10 -3 6 -8 10 -10 10 -2
0 -7 -4 -10 -10z"/>
<path d="M6135 4480 c3 -5 8 -10 11 -10 2 0 4 5 4 10 0 6 -5 10 -11 10 -5 0
-7 -4 -4 -10z"/>
<path d="M5450 4400 c0 -5 7 -7 15 -4 8 4 15 8 15 10 0 2 -7 4 -15 4 -8 0 -15
-4 -15 -10z"/>
<path d="M5861 4391 c-8 -5 -9 -11 -3 -15 5 -3 12 1 16 9 6 17 6 18 -13 6z"/>
<path d="M5418 4383 c7 -3 16 -2 19 1 4 3 -2 6 -13 5 -11 0 -14 -3 -6 -6z"/>
<path d="M6263 4355 c-7 -8 -10 -21 -7 -29 9 -24 23 -19 16 6 -3 12 -1 19 5
15 5 -3 10 0 10 8 0 19 -8 18 -24 0z"/>
<path d="M5408 4353 c7 -3 16 -2 19 1 4 3 -2 6 -13 5 -11 0 -14 -3 -6 -6z"/>
<path d="M5353 4343 c9 -2 23 -2 30 0 6 3 -1 5 -18 5 -16 0 -22 -2 -12 -5z"/>
<path d="M5882 4316 c13 -13 27 -21 31 -19 10 6 -27 43 -43 43 -6 0 0 -11 12
-24z"/>
<path d="M6290 4310 c0 -5 4 -10 9 -10 5 0 16 -2 24 -5 8 -4 14 0 14 10 0 9
-9 15 -24 15 -12 0 -23 -4 -23 -10z"/>
<path d="M6539 4317 c-12 -34 0 -48 20 -23 9 10 8 15 -4 20 -8 3 -15 4 -16 3z"/>
<path d="M6480 4264 c0 -14 4 -23 10 -19 6 3 10 15 10 26 0 10 -4 19 -10 19
-5 0 -10 -12 -10 -26z"/>
<path d="M5838 4243 c7 -3 16 -2 19 1 4 3 -2 6 -13 5 -11 0 -14 -3 -6 -6z"/>
<path d="M6552 4210 c1 -19 7 -38 13 -42 6 -5 5 -8 -2 -8 -7 0 -13 -9 -13 -20
0 -11 5 -20 11 -20 5 0 8 4 4 9 -3 5 -1 12 4 15 5 3 11 -8 15 -24 5 -29 26
-43 26 -17 0 26 -21 83 -40 112 l-21 30 3 -35z"/>
<path d="M4937 4213 c-12 -12 -7 -22 8 -17 8 4 15 10 15 15 0 11 -14 12 -23 2z"/>
<path d="M6480 4191 c0 -12 5 -21 10 -21 6 0 10 6 10 14 0 8 -4 18 -10 21 -5
3 -10 -3 -10 -14z"/>
<path d="M6441 4174 c0 -11 3 -14 6 -6 3 7 2 16 -1 19 -3 4 -6 -2 -5 -13z"/>
<path d="M6415 4144 c4 -10 10 -31 13 -46 3 -19 10 -28 23 -28 16 0 18 3 10
19 -16 28 14 35 32 8 21 -31 28 -18 15 26 -11 36 -28 50 -28 23 0 -8 -7 -17
-16 -20 -12 -4 -15 -2 -10 9 3 8 1 15 -3 15 -5 0 -17 3 -27 7 -14 5 -16 3 -9
-13z"/>
<path d="M5188 4113 c7 -3 16 -2 19 1 4 3 -2 6 -13 5 -11 0 -14 -3 -6 -6z"/>
<path d="M6307 4114 c-8 -8 3 -34 14 -34 11 0 12 27 0 34 -4 3 -11 3 -14 0z"/>
<path d="M6270 4059 c0 -5 5 -7 10 -4 6 3 10 8 10 11 0 2 -4 4 -10 4 -5 0 -10
-5 -10 -11z"/>
<path d="M6321 4061 c-7 -5 -10 -14 -6 -20 5 -9 10 -9 21 0 26 22 14 38 -15
20z"/>
<path d="M5870 3721 c0 -5 7 -15 17 -22 15 -13 15 -12 4 9 -12 23 -21 28 -21
13z"/>
<path d="M6361 3584 c0 -11 3 -14 6 -6 3 7 2 16 -1 19 -3 4 -6 -2 -5 -13z"/>
<path d="M5726 3521 c-3 -5 3 -11 13 -14 14 -3 18 -1 14 9 -6 16 -19 18 -27 5z"/>
<path d="M5686 3415 c-3 -9 0 -15 9 -15 9 0 12 6 9 15 -4 8 -7 15 -9 15 -2 0
-5 -7 -9 -15z"/>
<path d="M5765 3420 c-3 -5 -2 -10 4 -10 5 0 13 5 16 10 3 6 2 10 -4 10 -5 0
-13 -4 -16 -10z"/>
<path d="M2205 5890 c-3 -5 -1 -10 4 -10 6 0 11 5 11 10 0 6 -2 10 -4 10 -3 0
-8 -4 -11 -10z"/>
<path d="M2370 5790 c-9 -6 -10 -10 -3 -10 6 0 15 5 18 10 8 12 4 12 -15 0z"/>
<path d="M2540 5315 c-11 -13 -10 -14 4 -9 9 3 16 10 16 15 0 13 -6 11 -20 -6z"/>
<path d="M2616 5321 c-4 -7 -5 -15 -2 -18 9 -9 19 4 14 18 -4 11 -6 11 -12 0z"/>
<path d="M3218 5283 c7 -3 16 -2 19 1 4 3 -2 6 -13 5 -11 0 -14 -3 -6 -6z"/>
<path d="M3234 5253 c-29 -12 -29 -12 -4 -12 14 0 45 4 70 8 l45 7 -41 5 c-23
2 -55 -1 -70 -8z"/>
<path d="M2606 5241 c-4 -5 3 -7 14 -4 23 6 26 13 6 13 -8 0 -17 -4 -20 -9z"/>
<path d="M2856 5101 c-3 -4 6 -6 19 -3 14 2 25 6 25 8 0 8 -39 4 -44 -5z"/>
<path d="M4570 4646 c0 -2 7 -7 16 -10 8 -3 12 -2 9 4 -6 10 -25 14 -25 6z"/>
<path d="M2073 4591 c0 -11 5 -18 9 -15 4 3 5 11 1 19 -7 21 -12 19 -10 -4z"/>
<path d="M4115 4600 c-8 -13 5 -13 25 0 13 8 13 10 -2 10 -9 0 -20 -4 -23 -10z"/>
<path d="M3188 4403 c7 -3 16 -2 19 1 4 3 -2 6 -13 5 -11 0 -14 -3 -6 -6z"/>
<path d="M3932 4316 c1 -10 8 -17 13 -17 15 1 12 24 -3 29 -9 3 -13 -2 -10
-12z"/>
<path d="M3568 4213 c7 -3 16 -2 19 1 4 3 -2 6 -13 5 -11 0 -14 -3 -6 -6z"/>
<path d="M2337 4086 c-4 -10 -5 -21 -2 -24 9 -9 17 6 13 25 -3 17 -4 17 -11
-1z"/>
<path d="M3021 4052 c-1 -19 22 -24 50 -12 23 10 22 10 -8 7 -18 -2 -35 1 -37
7 -3 7 -5 6 -5 -2z"/>
<path d="M3006 3851 c-4 -7 -5 -15 -2 -18 9 -9 19 4 14 18 -4 11 -6 11 -12 0z"/>
<path d="M2596 3493 c-6 -14 -5 -15 5 -6 7 7 10 15 7 18 -3 3 -9 -2 -12 -12z"/>
<path d="M2547 3443 c-4 -3 -7 -11 -7 -17 0 -6 5 -5 12 2 6 6 9 14 7 17 -3 3
-9 2 -12 -2z"/>
<path d="M2815 3360 c-24 -38 -34 -64 -17 -44 16 17 54 84 48 84 -3 0 -17 -18
-31 -40z"/>
<path d="M2645 3379 c-4 -6 -5 -12 -2 -15 2 -3 7 2 10 11 7 17 1 20 -8 4z"/>
<path d="M2630 3336 c0 -8 -6 -17 -12 -20 -7 -3 -4 -5 7 -3 20 2 35 37 16 37
-6 0 -11 -6 -11 -14z"/>
<path d="M2766 3269 c-9 -18 -14 -34 -12 -37 3 -2 12 10 21 28 9 18 14 34 12
37 -3 2 -12 -10 -21 -28z"/>
<path d="M2630 3279 c0 -5 5 -7 10 -4 6 3 10 8 10 11 0 2 -4 4 -10 4 -5 0 -10
-5 -10 -11z"/>
<path d="M3022 3012 c3 -11 0 -19 -8 -19 -8 0 -14 4 -14 9 0 4 -5 8 -12 8 -6
0 -4 -7 5 -18 10 -10 14 -22 10 -25 -3 -4 -3 -7 2 -7 12 0 34 33 35 53 0 9 -5
17 -11 17 -6 0 -9 -8 -7 -18z"/>
<path d="M5693 5435 c0 -8 4 -12 9 -9 5 3 6 10 3 15 -9 13 -12 11 -12 -6z"/>
<path d="M4695 5410 c-3 -5 1 -10 10 -10 9 0 13 5 10 10 -3 6 -8 10 -10 10 -2
0 -7 -4 -10 -10z"/>
<path d="M5578 5398 c3 -13 -1 -18 -14 -18 -16 0 -17 2 -4 10 11 7 8 9 -13 8
-26 -2 -27 -4 -10 -15 11 -9 36 -12 70 -8 29 2 53 1 53 -4 0 -4 7 -8 15 -8 11
0 12 4 4 14 -9 10 -4 13 27 14 22 0 48 4 59 8 11 5 -20 7 -73 5 -51 -2 -91 0
-88 4 2 4 -3 8 -13 8 -12 0 -17 -6 -13 -18z"/>
<path d="M5428 5393 c12 -2 30 -2 40 0 9 3 -1 5 -23 4 -22 0 -30 -2 -17 -4z"/>
<path d="M5346 5368 c4 -6 21 -8 39 -6 19 2 31 0 29 -4 -3 -4 4 -8 16 -8 13 0
20 5 18 13 -3 7 -25 13 -56 13 -31 1 -49 -2 -46 -8z"/>
<path d="M5774 5345 c-9 -22 -1 -27 24 -18 22 8 22 8 2 21 -17 10 -21 10 -26
-3z"/>
<path d="M5448 5333 c6 -2 18 -2 25 0 6 3 1 5 -13 5 -14 0 -19 -2 -12 -5z"/>
<path d="M6622 3944 c-7 -8 -8 -14 -3 -14 10 0 25 19 20 25 -2 1 -10 -3 -17
-11z"/>
<path d="M6611 3884 c0 -11 3 -14 6 -6 3 7 2 16 -1 19 -3 4 -6 -2 -5 -13z"/>
<path d="M6490 3520 c0 -5 5 -10 10 -10 6 0 10 5 10 10 0 6 -4 10 -10 10 -5 0
-10 -4 -10 -10z"/>
<path d="M5140 3390 c0 -5 7 -10 15 -10 8 0 15 -5 15 -12 0 -6 3 -8 6 -5 8 8
-14 37 -27 37 -5 0 -9 -4 -9 -10z"/>
<path d="M5106 3361 c18 -17 44 -18 44 -1 0 9 -25 20 -48 20 -13 0 -12 -3 4
-19z"/>
<path d="M4805 3303 c-11 -3 -24 -10 -30 -15 -12 -13 35 0 50 13 5 5 7 8 5 8
-3 -1 -14 -3 -25 -6z"/>
<path d="M4835 3231 c-6 -10 21 -34 33 -29 4 1 0 11 -10 20 -9 10 -20 13 -23
9z"/>
<path d="M4705 3180 c-3 -5 1 -10 9 -10 9 0 16 5 16 10 0 6 -4 10 -9 10 -6 0
-13 -4 -16 -10z"/>
<path d="M5300 3169 c0 -5 5 -7 10 -4 6 3 10 8 10 11 0 2 -4 4 -10 4 -5 0 -10
-5 -10 -11z"/>
<path d="M3546 3162 c-3 -6 -1 -14 5 -17 14 -9 20 -2 10 14 -6 8 -11 9 -15 3z"/>
<path d="M3876 3145 c-3 -8 -2 -15 3 -15 5 0 14 7 21 15 10 12 10 15 -3 15 -8
0 -17 -7 -21 -15z"/>
<path d="M5001 3133 c7 -12 15 -20 18 -17 3 2 -3 12 -13 22 -17 16 -18 16 -5
-5z"/>
<path d="M5300 3140 c0 -5 5 -10 11 -10 5 0 7 5 4 10 -3 6 -8 10 -11 10 -2 0
-4 -4 -4 -10z"/>
<path d="M3338 3013 c12 -2 32 -2 45 0 12 2 2 4 -23 4 -25 0 -35 -2 -22 -4z"/>
<path d="M4903 2973 c-22 -8 -14 -25 8 -18 18 6 20 4 15 -17 -6 -20 -6 -21 4
-5 19 31 4 53 -27 40z"/>
<path d="M3630 2945 c0 -9 5 -15 11 -13 6 2 11 8 11 13 0 5 -5 11 -11 13 -6 2
-11 -4 -11 -13z"/>
<path d="M3578 2928 c5 -5 16 -8 23 -6 8 3 3 7 -10 11 -17 4 -21 3 -13 -5z"/>
<path d="M3660 2785 c0 -9 6 -12 15 -9 8 4 15 10 15 15 0 5 -7 9 -15 9 -8 0
-15 -7 -15 -15z"/>
<path d="M5341 2768 c8 -15 7 -31 -6 -65 -9 -24 -15 -47 -12 -49 5 -5 47 98
47 115 0 5 -9 11 -20 14 -17 4 -18 2 -9 -15z"/>
<path d="M3810 2640 c-8 -5 -12 -12 -9 -15 4 -3 12 1 19 10 14 17 11 19 -10 5z"/>
<path d="M5170 2581 c0 -6 4 -13 10 -16 6 -3 7 1 4 9 -7 18 -14 21 -14 7z"/>
<path d="M5066 2517 c3 -10 9 -15 12 -12 3 3 0 11 -7 18 -10 9 -11 8 -5 -6z"/>
<path d="M3359 2343 c-13 -16 -12 -17 4 -4 16 13 21 21 13 21 -2 0 -10 -8 -17
-17z"/>
<path d="M6363 3405 c-8 -9 -9 -16 -3 -20 6 -4 7 -12 4 -18 -4 -7 -3 -9 1 -5
7 7 18 59 12 58 -1 -1 -8 -7 -14 -15z"/>
<path d="M2395 3220 c-3 -5 -1 -10 4 -10 6 0 11 5 11 10 0 6 -2 10 -4 10 -3 0
-8 -4 -11 -10z"/>
<path d="M2441 3134 c0 -11 3 -14 6 -6 3 7 2 16 -1 19 -3 4 -6 -2 -5 -13z"/>
<path d="M4055 2370 c3 -5 8 -10 11 -10 2 0 4 5 4 10 0 6 -5 10 -11 10 -5 0
-7 -4 -4 -10z"/>
<path d="M6882 2065 c3 -13 1 -26 -5 -28 -5 -1 4 -17 22 -34 17 -17 33 -27 36
-23 3 5 -5 18 -17 29 -12 12 -17 21 -11 21 15 0 10 33 -5 38 -7 2 -10 8 -6 13
3 5 0 9 -7 9 -7 0 -9 -10 -7 -25z"/>
<path d="M3187 1173 c-10 -9 -9 -23 2 -23 5 0 11 7 15 15 5 15 -5 20 -17 8z"/>
<path d="M6932 998 c-16 -16 -15 -28 3 -28 8 0 15 9 15 20 0 23 -2 24 -18 8z"/>
<path d="M3285 970 c-3 -5 -2 -10 4 -10 5 0 13 5 16 10 3 6 2 10 -4 10 -5 0
-13 -4 -16 -10z"/>
<path d="M6430 891 c0 -5 5 -13 10 -16 6 -3 10 -2 10 4 0 5 -4 13 -10 16 -5 3
-10 2 -10 -4z"/>
<path d="M6382 659 c2 -7 10 -15 17 -17 8 -3 12 1 9 9 -2 7 -10 15 -17 17 -8
3 -12 -1 -9 -9z"/>
<path d="M3528 605 c-17 -23 -17 -23 18 -20 42 4 58 15 23 15 -17 0 -20 3 -11
9 11 7 11 9 0 13 -7 3 -21 -5 -30 -17z"/>
<path d="M6010 585 c-13 -35 -13 -40 5 -25 8 7 13 16 10 20 -3 5 0 10 7 12 9
3 9 6 0 12 -8 4 -16 -2 -22 -19z"/>
<path d="M6076 533 c-6 -14 -5 -15 5 -6 7 7 10 15 7 18 -3 3 -9 -2 -12 -12z"/>
<path d="M6065 499 c-4 -6 -5 -12 -2 -15 2 -3 7 2 10 11 7 17 1 20 -8 4z"/>
<path d="M3752 425 c10 -10 71 -17 65 -8 -3 5 -20 10 -38 11 -18 1 -30 0 -27
-3z"/>
<path d="M5750 280 l-25 -8 27 -1 c15 -1 30 4 33 9 7 11 0 11 -35 0z"/>
<path d="M4990 161 c-20 -3 -36 -13 -38 -22 -4 -23 22 -19 55 7 15 13 26 23
23 22 -3 0 -21 -3 -40 -7z"/>
<path d="M4790 114 c0 -2 9 -8 20 -14 14 -7 28 -7 51 2 l31 13 -51 1 c-28 0
-51 -1 -51 -2z"/>
<path d="M4830 44 c0 -8 5 -12 10 -9 6 3 10 10 10 16 0 5 -4 9 -10 9 -5 0 -10
-7 -10 -16z"/>
<path d="M4501 38 c-17 -6 -21 -12 -14 -19 13 -13 55 -8 60 7 6 17 -18 23 -46
12z"/>
<path d="M5046 33 c-6 -14 -5 -15 5 -6 7 7 10 15 7 18 -3 3 -9 -2 -12 -12z"/>
</g>
</svg>
